<?xml version="1.0" encoding="UTF-8"?><svg id="App_Icon_Kit_B" xmlns="http://www.w3.org/2000/svg" xmlns:xlink="http://www.w3.org/1999/xlink" viewBox="0 0 1024 1024"><defs><style>.cls-1{fill:#f9b718;}.cls-1,.cls-2,.cls-3{stroke-width:0px;}.cls-2{fill:#1973b6;}.cls-3{fill:#ffc742;}</style><symbol id="Icon" viewBox="0 0 1024 1024"><rect id="blue_background" class="cls-2" width="1024" height="1024"/><g id="Simplified_globe"><path class="cls-3" d="m545.18,529.79c7.01-2.34,3.27-3.97,1.4-4.68,0,0-6.31-3.04-7.95-2.34-1.63.7-4.2,3.27-3.97,5.14.23,1.87,3.5,4.21,10.52,1.87Z"/><path class="cls-3" d="m487.61,441.37c0,.74,1.04,1.63,2.38,1.19,1.33-.45,1.63-1.49,2.22-2.08.59-.59,1.19.59,2.23.44,1.04-.15,1.33-1.19,2.08-1.48.74-.3.74.89.89,1.78.15.89.74.89,2.53-.59,1.78-1.48,5.93-2.08,8.01-2.23,2.08-.15,4.01-1.93,3.26-3.12-.74-1.19-.29-3.71-.74-5.19-.44-1.48-2.23-.74-3.26-.74s-.59,1.19-1.33,1.78c-.74.59-.45.15,0-1.04.31-.83-.32-1.29-.73-1.5.4.14.8.05,2.36-.43,1.93-.59,2.08-1.93,2.67-3.41.59-1.48-1.48-4-2.22-4.9-.74-.89-1.48-.74-1.48-.74.44-1.18-1.49-3.7-2.23-4.9-.74-1.18-2.97-1.04-4.6-1.63-1.63-.59-.59-2.08-.74-3.26-.15-1.19-.89-2.67-1.48-3.41-.59-.74,0-2.23-.74-2.52-.74-.3-1.33,1.04-1.78.29-.44-.74.89-1.34.3-1.63-.6-.3-.6.29-.74-.44-.15-.74.02-.6,1.42-.83,1.4-.24,3.04-2.34,4.21-3.74,1.17-1.4,0-4.21-2.1-4.21s-3.74,2.11-6.31,1.87c-2.57-.24-1.87-2.57-1.4-3.74.47-1.17.42-2.43-.47-2.81-.94-.39-2.32,1.58-3.51,2.32-1.18.74-1.78,1.63-2.82,2.22-1.04.59.3,1.34-.15,1.78-.44.45-1.33-.59-1.93.59-.59,1.19,1.78,1.04.74,1.93-1.04.89-.29,1.33.3,2.52.59,1.19-.3,1.63.44,3.56.74,1.93,1.63,1.34,1.78,3.12.15,1.78-.15,2.52-1.19,1.63-1.04-.89-.74-3.56-1.48-3.56s-.3,1.34-1.78,1.93c-1.48.59-.44,1.78-.29,2.97.15,1.19,1.19.44,1.63,1.19.44.74,1.48,1.49,2.37,1.04.49-.24.66-.67.72-1,0,.8.12,2.4,1.21,3.38,1.48,1.34,2.52,2.97,2.08,6.23-.45,3.26-2.23,1.78-2.37,3.71-.15,1.93,2.23,3.86.74,5.79-1.48,1.93-2.82,5.94-2.82,7.12s1.19-.3,2.67-.44c1.48-.15,2.52.29,3.41-.45.89-.74-.74-1.93.59-1.34,1.34.59.45,1.63-.59,2.82-1.04,1.19-2.08.3-3.12.3s-1.19,1.19-1.63,2.23c-.45,1.04-1.04-.74-1.93-1.19-.89-.44-2.23.15-2.82,1.19-.59,1.04-.45,2.37-1.49,2.97-1.04.59-2.22,2.22-.44,1.93,1.78-.3,3.56-1.78,5.19-1.48,1.63.3,2.38.74,3.56.44,1.19-.3,0-1.34-.44-2.67-.44-1.33,1.18-.3,1.18.45Z"/><path class="cls-3" d="m467.29,434.54c-1.19.44-1.63.44-1.78,1.34-.15.89,0,1.63.44,1.93.45.3-.15,1.78,1.48,1.18,1.63-.59,1.19-1.93,2.97-2.52,1.78-.59,2.08.15,3.71-.74,1.63-.89,1.48-2.22,2.67-3.12,1.18-.89,2.97.44,4.01-1.93,1.04-2.37-.59-2.67-.59-3.71s1.34-1.63.74-2.23c-.59-.59-1.04,1.19-1.93.74-.89-.44.74-.74,1.48-2.38.74-1.63-1.34-3.71-.15-6.23,1.19-2.52,1.19-2.97-.29-4.45-1.49-1.49,1.33-1.19-.45-2.67-1.78-1.49-3.12-4.16-4.6-3.12-1.48,1.04-1.48-.89-3.41-.74-.8.06-1.78.89-1.34,2.08.44,1.19-.74,1.34-1.49,2.82-.74,1.48-1.78,1.63-.74,3.27,1.04,1.63,1.63,2.52.89,3.71-.74,1.19-2.07,1.33-3.11,2.37-1.04,1.04-5.2,2.67-5.05,4.45.15,1.78-1.19,4.45-.59,5.49.59,1.04.74,1.78,2.67.15,1.93-1.63,4.16-4.16,5.34-3.71,1.18.45.3,1.63-.59,1.78-.89.15-4.01,2.23-4.01,2.23,0,0,.44,1.48-.44,1.48s-1.78,0-2.23.74c-.44.74-.59,2.97.15,3.86.74.89-.15,1.34.59,2.52.74,1.18,1.93,2.23,2.67.59.74-1.63.15-2.52.15-3.41s.29-1.93,1.33-2.08c1.04-.15.89-2.08,2.08-1.78,1.18.3.59,1.63-.6,2.08Z"/><path class="cls-3" d="m474.11,360.5c-.44-1.49-1.04.89-2.23,2.67-1.19,1.78,1.19,3.86,2.08,5.93.89,2.08,2.23,5.49,3.41,5.94,1.19.44,3.56-.3,3.71-1.64.15-1.34,2.08-1.04,3.41-1.63,1.33-.59,1.04-1.19,2.52-2.82,1.48-1.63,2.67-1.33,1.18.29-1.48,1.63-.74,3.27-.74,2.67s.59-1.48,4.75-2.97c4.16-1.48,2.52-4.01,1.78-5.79-.74-1.78-1.78-2.23-3.27-2.82-1.48-.59-1.78-1.48-2.08-2.97-.3-1.48-1.93-.59-2.52-.15-.59.44-.74,2.22-1.63,2.08-.89-.15-.3-3.11-.3-3.11-.44-1.63-6.38,2.52-7.72,4.45-1.33,1.93-1.04,2.38-2.08,2.38s.15-1.04-.3-2.52Z"/><path class="cls-3" d="m751.79,504.04c-.64-24.58-5.09-53.99-18.18-83.57-7.41-18.22-17.56-36.83-31.37-54.89-69.16-90.38-176.88-93.78-176.88-93.78,0,0,.13.22.35.57-.58-.06-1.16-.12-1.73-.17,0,0,1.24.41,2.38,1.12.64.9,1.55,2.02,2.57,2.83.62.5,1.52.74,2.53.9,1.53.35,3.24.49,4.39.49,2.37,0,7.12,6.53,10.09,5.34,1.46-.58,2.92-1.16,4.1-1.39.74.16,1.52.44,2.45.89.5,1.71-1.23,2.34-2.39,5.25-1.19,2.97,1.78,4.75,5.34,4.16,2.77-.47,2.31-3.07,3.09-4.21.82.64,1.82,1.11,3.24,1.24.76.07,1.45.1,2.09.13,1.6.88,3.45,1.73,5.55,1.71.08.14.16.3.24.47-1.33,1.15-4.2,3.89-2.34,4.82.78.39,1.94.52,3.21.61.23.63.67,1.12,1.54,1.37,2.22.63,3.68-.51,5.2.24.04.05.1.1.14.16.5.66,1,1.05,1.5,1.31,1.92,1.84,4.24,1.98,4.24,3.44,0,1.58-3.17,1.19-5.93.79-2.65-.38-6.73-4.35-9.16-1.26-1.03.21-1.73.73-1.92,1.65-.1.51-.18,1.09-.22,1.71-1.39,2.34-1.87,4.07,1.01,5.8.5.3,1.02.57,1.55.8.89.74,2.06,1.36,3.59,1.78,6.53,1.78,7.12,4.75,8.9,6.53.93.93,1.37-.55,2.34-2.18.72.34,1.41.67,1.98,1-.38.99-.53,2.04-.16,2.96.3.76.53,1.56.78,2.36-.21,1.01-.15,1.96.79,2.59.17.11.36.21.53.31.84,1.22,2.14,2.3,4.41,3.05,5.34,1.78,1.19,6.53,5.94,6.53.22,0,.44,0,.66,0,.37.12.82.13,1.35.02,4.16.1,8.33.4,9.86-.62.76-.51,1.41-1.23,2.05-1.71.64-.12,1.26-.22,1.85-.3.27.16.55.41.85.82.73.97,1.75,1.84,2.7,2.53-.08.32-.2.64-.34.95-.85-.11-1.72-.13-2.36.09-.95.32-2.07.64-3.26,1.05-1.93-.8-2.97-1.54-4.46-.06-1.98,1.98-5.14,0-7.12,2.37-1.98,2.38-3.96,1.58-3.96,4.75,0,.36-.03.66-.08.95-.45.16-.89.3-1.31.44-1.78.59-8.31-.59-9.5,2.37-.4.98-.72,2.49-.98,4.12-1.03.93-1.86,1.44-.8,3.19.18.31.27.59.29.86-.02.21-.04.42-.06.62-.32,1.21-1.7,2.23-1.41,3.67.16.79.38,1.83.62,2.88-.71,2.32-2.02,5.04-3.59,5.43-.38.1-.83.04-1.32-.1-.57-.59-.84-1.48-1.65-1.48-.34,0-.72.07-1.09.13-.96-.59-1.96-1.26-2.92-1.85-.55-.61-1.13-1.04-1.13-1.04,0,0-.31.05-.71.04-.44-.2-.87-.36-1.27-.43-.12-.03-.24-.07-.36-.1-.19-.18-.36-.39-.43-.7-.16-.66-.68-.49-1.27-.22-1.47-1.26-1.72-3.14.88-3.14.66,0,1.47-.04,2.35-.13,1.47.09,2.8-.07,2.8-.07,0,0,.29-.2.74-.54,2.85-.71,5.4-1.96,5.4-4.01,0-.85-.21-1.57-.55-2.18.23-.43.36-.79.36-.79,0,0-.34.06-.81.12-.85-1.04-2.13-1.75-3.36-2.34.06-.92-.04-1.74-.97-1.74-1.58,0-5.14-1.58-5.14-1.58,0,0-2.48-.27-3.99.1-2.45-.47-4.83-.73-6.3-.49-.19.03-.41.07-.65.11-.16,0-.3.02-.41.07-.72.12-1.6.27-2.59.46-.68-.21-1.43-.34-2.1-.04-1.78.79-4.35,0-4.55,1.39-.03.22-.09.39-.15.54-.53.2-1.04.42-1.55.65-.09,0-.19,0-.28,0-.26,0-.76.34-1.35.84-2.33,1.34-4.19,3.11-4.78,5.49-.65,2.62-.91,4.83-1.17,6.89-.49.75-.75,1.53-.61,2.22.2.99-.99,2.18-1.58,1.38-.59-.79-1.78-.99-1.98.4-.19,1.39-2.17,2.57-1.38,3.56.79.99,1.78,0,1.98,1.19.1.58-.29,1.79-.82,2.73-.22.3-.45.61-.68.92-.38.37-.76.48-1.07.11-.99-1.19-1.19.79-2.97,2.57-1.78,1.78-2.97,3.76-2.77,5.15.08.53.12,1.27.08,2-.46.87-.85,1.74-1.16,2.6-1.09.42-1.1,1.38-1.1,2.53s-1.19,2.77-.79,3.96c.27.8.71.62.97.72,0,.37,0,.77.03,1.2-.26.52-.69.89-.4,1.45.15.3.42.55.68.83.15.76.37,1.54.68,2.3-.07,1.28.47,1.7,1.01,2.6.59.99,1.38,1.58,2.17,1.58.06,0,.08-.02.12-.04.22.15.43.3.67.44.85.47,1.66.87,2.41,1.23.18.23.4.29.63.3.67.31,1.29.59,1.88.85.07.16.14.34.22.59.4,1.18,1.19,2.17,1.78,2.17s1.19,3.17,2.77,1.78c.27-.24.48-.39.66-.5.1.27.19.57.25.89-.09.19-.19.39-.31.6-.79,1.38-.6,1.78.2,2.77.79.99.2,2.18.99,2.18.35,0,.65-.27.96-.62,1.49,1.96,3.87,2.78,7.15.22,5.34-4.15,7.72-10.68,7.72-14.24,0-1.29-1.09-3.28-2.43-5.4.46-.52.77-1.09.25-1.72-.99-1.19-.79-1.78-1.58-2.97-.79-1.19-1.98-.59-2.17-1.78-.2-1.19-.99-1.78-.99-1.78,0,0-.4-1.58,1.39-2.77,1.76-1.18,2.55-2.93,2.95-4.12.84-1.09,1.65-2.26,2.31-3.5.14-.15.23-.35.29-.58.6-1.24,1.04-2.54,1.18-3.87,0,0,1.79.27,2.34,2.48-.59,1.66-1.33,3.01-1.16,4.05.08.47.31.99.5,1.48-.19.55-.36,1.08-.53,1.59-.61.17-.73.39-.56.89.04.13.08.33.1.55-1.57,4.96-1.97,7.76.49,9.73.78.63,1.77,1.34,2.81,2.04.19.22.38.41.56.53.59.4-.79,2.18,0,2.18.57,0,1.13-.61,1.55-1.31.82.53,1.59,1.02,2.24,1.42-.26.1-.5.25-.62.49-.4.79.4.99,1.39.59.22-.09.41-.17.57-.26.26.16.42.26.42.26,0,0,1.78-4.16,4.15-4.75.02,0,.05-.02.07-.02.98.04,1.98.08,2.9-.57,1.39-.99,2.18.2,3.36-1.39.22-.29.36-.47.49-.6.12-.01.24-.02.36-.02,0,.23-.06.62-.06,1.02,0,.7.89.02,1.62-.16.07.16.13.34.16.55.06.33.07.63.07.91-.02.09-.05.17-.07.28-.2,1.38-.79,2.37-1.98,2.37s-3.76-.2-3.96.79c-.2.99-.6,1.98-1.38,1.58-.79-.4-1.38.39-2.77,1.19-1.28.73-1.21,1.47-1.03,2.52-.06.14-.11.29-.16.45-.07.29-.22.66-.41,1.08-.4.32-.88.61-1.17,1.1-.59.99-1.78.59-2.18,1.98-.21.72-.09,1.7-.08,2.45-.25.34-.49.68-.74,1.01-.8-.44-1.01-2.2-1.56-1.29-.59.99-1.38,2.37-.79,3.36.12.19.17.4.19.6-.35.41-.7.79-1.04,1.13-.56-.44-.95-1.69-1.33-.54-.4,1.19-.4,2.17-2.17,2.97-1.78.79-2.97,1.58-4.35,1.58s-2.77.2-3.17,1.58c-.09.31-.08.57-.03.81-.28.38-.56.81-.85,1.27-.34.15-.47.5-.58.87-.36.52-.75,1-1.17,1.37-.05,0-.08.03-.13.04-.72.08-1.56,0-2.19-.2-.09-.59.04-1.37.21-2.04,1.13-1.06.92-2.16.4-2.5-.59-.39-2.18-.79-2.58,0-.17.34-.38.82-.64,1.19h-1.53c-.79-.83-.9-1.11-2.18-.19-.44.31-.93.58-1.41.84-1.43.52-2.93,1.41-4.14,2.91,0,0-.15-.89.07-2.21,1.33-.61,1.72-1.96,2.11-2.73.2-.4-.06-.96-.31-1.52.16-.22.33-.44.51-.66.45-.54.75-1.08.95-1.61.02.01.02.02.04.03.99.99,1.39-.99.79-1.78-.17-.22-.37-.41-.59-.59-.28-1.73-1.49-3.19-2.53-4.02-.42-.79-1.12-1.23-1.83-2.11-.79-.99-2.96-2.57-3.16-.59-.2,1.98-1.38-.59-1.38.79s-1.19,1.98-1.19,1.98c0,0-.2-3.17-.79-2.38-.59.79-2.37,2.97-1.19,3.76.61.41,1.06.82,1.2,1.14-.06.16-.12.32-.17.49-.11.06-.24.12-.43.15-1.18.2-2.97.2-2.37,1.98.59,1.78.99,2.77.79,3.96-.2,1.19-.19,2.97-.99,3.76-.79.79-2.57.79-3.36,2.38-.79,1.58-2.77,3.36-2.17,3.56.59.2,2.17-2.57,3.17-2.77.09-.02.16,0,.23.01-1.22,1.24-2.68,2.66-4.19,4.09-.05-.89-1.01-.28-2.17,1.84-.07.13-.15.26-.24.4-1.88,1.73-3.7,3.34-5.1,4.55-.81.69-1.69,1.48-2.61,2.3-.05.02-.11.06-.16.08-2.77,1.19-4.55.99-4.55,2.18s-.59,2.77-1.59,2.57c-.99-.2,0,.39-1.78.99-1.78.59-2.97.99-3.76.2-.79-.79-1.58-1.98-1.98-.59-.1.33-.11.61-.09.85-1.06-.87-1.29-2.04-1.29-2.04,0,0-.34,1.17-1.27,2.44-.5-.39-.96-.77-1.3-.86-.79-.2-2.97-.99-3.76.2-.79,1.19-2.77,1.98-3.16,3.36-.4,1.39-.4-1.38-1.19-.79-.74.55-1.81.77-2.11,1.6-.11.15-.2.34-.26.58-.06.23-.07.44-.06.65-.26.97-.5,2.09.06,2.52.62.46,1.47.81,2.28,1.31.43.53.91,1.13,1.41,1.83.17.69.29,1.44.85,2.01.99.99,1.39,3.76,1.39,4.75s1.58,3.96,2.18,5.15c.47.95.57-.25.99-.47.54,3.06-.11,6.11-3.37,8.77-1.4,1.14-2.68,1.82-3.82,2.2-.83-.23-1.58-.52-2.11-.41-.55.11-.61.46-.73.78-2.45-.21-3.82-1.77-3.82-1.77,0,0-.08.05-.21.11-.17-.34-.41-.61-.78-.71-.79-.2-2.77.4-2.77.4,0,0-1.39-.99-1.98-.59-.15.1-.3.25-.46.42-.69-1.02-1.2-2.19-1.74-3.14-.05-.76-.26-1.71-.77-2.22-.47-.46-1.17-.31-1.65.35-.1,0-.21.02-.33.05-.7.17-1.59.7-2.49,1.42-.6.07-1.12.19-1.27.56-.11.28-.3.67-.54,1.13-1.44,1.58-2.6,3.46-2.62,4.95-.85,1.08-1.9,1.72-1.59,3.61.09.52.18.99.27,1.41-.39.9-.84,1.79-1.33,2.61-.33-.19-.6-.39-.92-.06-.51.52-.88,2.07-1.23,2.87-.12.1-.24.21-.36.3-.06.04-.1.1-.16.14-.78.05-2.48-.73-2.81.25-.39,1.19-.79,1.39-1.39,2.38-.59.99-1.58,1.98-1.18,2.97.4.99.59-1.78,2.18-1.98.17-.02.28-.03.39-.03-.25.49-.48,1-.69,1.54-.69.94-2.69,1.77-3.07,4.24-.4,2.57,0,4.55-.59,4.55s-.99.79.2,2.17c1.19,1.39,6.92,2.38,6.14,3.37-.8.99,3.16,1.38,4.15,2.17.99.79,1.39,3.56,2.97,2.96.78-.29,1.26-.43,1.63-.37.3.27.55.53.75.77,0,0,.15.37.33.92.04,1.36-.86,3.47-.53,4.62.4,1.39,1.39.99,1.98.2.34-.44.61-.95,1-1.31.32-.15.68-.3,1.06-.46.04,0,.08-.01.12-.01.52,0,1.04-.27,1.51-.59,1.14-.36,2.38-.66,3.61-.75.07.06.16.09.23.15.33.33,1.71.24,2.9.25.93.35,1.58.76,2.06,1.18.29.7.77,1.38,1.13,1.34.6.93.95,1.6,2.62,1.39,3.17-.4.79-2.38,3.17-4.36,1.04-.86,2.38-2.03,3.5-3.38.94-.09,1.87-1.06,2.43-2.75.59-1.78-.79-1.98,1.39-4.95.92-1.25,1.13-2.04,1.1-2.62.18-.56.29-1.15.29-1.74,0-.43.05-.78.13-1.06.38-.31.81-.36,1.25.07.71.71.95-.49,1.56-.88.35.1.7.21,1.01.29.14.04.28.08.42.12.48.35,1.04.77,1.75.87,1.39.2,3.17-.19,3.17-.99s.59-.79,1.19-1.38c.26-.26.49-.83.81-1.45,1.2-1.22,2.63-2.31,4.14-2.31.65,0,1.39-.04,2.16-.1.37.56.7.6,1.6.3.39-.13.71-.37,1-.64,2.13-.39,4.07-1.03,4.74-1.93.2-.26.55-.72,1.02-1.28.34-.06.78-.41,1.36-1.1.72-.86,2.17-2.14,3.75-2.77.41-.15.83-.26,1.27-.34.17-.02.35-.05.52-.05,2.18,0,2.97.99,4.35,1.38.1.03.19.05.28.08.82.61,1.65,1.42,2.49,2.5.23.29.42.55.62.82.39.94.78,1.74,1.65,2.28,3.51,5.19,1.4,4.9,3.43,6.67.08.17.16.34.24.52.32.76.88.86,1.48.8.37.26.75.52,1.14.77-.17.26-.25.54-.05.8.59.79,1.98,1.38,3.56,1.58.12.02.23.07.35.11.32.21.63.42.94.63.73.77,1.22,1.96,1.88,2.62.79.79.7-.56,1.43.38.13.2.25.41.34.62,1.19,2.77,1.19,7.51,1.19,7.51,0,0,2.38,2.78,5.54,1.19,3.17-1.59,0-2.77,1.58-5.55,1.58-2.77,5.94-4.35,4.35-5.93-1.08-1.07-3.23-1.97-4.88-3.18-.09-.25-.18-.51-.26-.78-.4-1.39-1.39-3.36-1.78-2.18-.05.16-.12.27-.2.37-.57-.78-1.34-1.33-2.2-1.83-.12-1.08-.14-2.43-.56-2.3-.6.2-.99.79-1.98.59-.99-.2-2.97-3.17-3.56-4.35-.48-.96-1.1-1.92-1.84-2.35-.48-.84-.94-1.67-1.36-2.44-.17-1.02-.37-2.03-.95-2.13-.09-.02-.16-.05-.23-.1-.18-.35-.33-.64-.45-.87-.27-1.08-.29-2.6-1.5-2.19-1.78.59-2.57,0-1.78-1.38.14-.25.34-.47.55-.68.53-.19,1.19-.31,2.02-.31,1.3,0,3.13,1.23,4.94,2.89-.01.55-.04.39.07.06.85.79,1.71,1.67,2.5,2.57.64,1.85,1.83,3.32,2.89,3.73.71,1.06,1.4,1.92,2.09,2.63.07.26.14.52.18.77.2,1.38.99,1.19,1.58.99.1-.03.17-.11.22-.21.99.54,2.07.81,3.34.81,0,0,.67,1.66,2.93.71.52-.08.95-.25,1.03-.51,0,0,0-.01,0-.02.91-.47,1.8-.77,2.49-.88.29.66.27,1.41-.32,1.88-.86.69-1.27,1.83-.84,3.02-.25,1.23-.14,2.52.25,3.7.29.86.99,2.14,1.87,3.45.63,1.22,1.27,2.27,1.91,2.58.6.73,1.21,1.38,1.76,1.86v.02c0,.68.28.7.7.53.17.11.33.21.48.27,1.98.79,0,7.12,1.58,9.9,1.58,2.77,2.77,6.33,3.56,7.92.6,1.2,2.57,1.49,3.48,1.56.1.24.17.51.18.77-.1.28-.21.59-.32.96-.1.1-.22.2-.37.27-1.23.61-.67,1.23-.08,1.56-.22,1.26-.17,2.45.68,2.79.55.22,1.32.22,2.18.13.88.25,2.01.26,2.96.26.88,0,.72-.4.28-.8.54-.09,1.05-.15,1.51-.17.97.97,2.25,2.12,3.55,1.96.93-.12,1.58-.51,2.01-.97.89-.19,1.6-.76,1.75-2,.06-.43.08-.79.07-1.09.08-.17.13-.34.13-.49,0-.79-.59-1.59-1.39-2.18-.54-.41-.44.21-.57.9-.62-.16-1.42-.33-2.4-.64-.21-.65-.42-1.25-1.98-1.25-1.98,0-2.97-.2-3.56-.59-.28-.19-.65-.02-1.05.12-.16-.28-.28-.64-.34-1.1-.08-.7-.13-1.18-.12-1.57.65.02,1.1.18,2.1.18,1.58,0,2.57-1.39,3.36-1.78.79-.39.59-.39,1.78-.59,1.18-.2,2.37-1.58,1.38-1.58s-1.78.59-2.18-.2c-.39-.79,1.19-1.98,1.19-1.98l-.35-1.06c.24-.55.35-.92.35-.92,0,0-.53-.39-1.15-.97l-.63-1.01s-.08.06-.21.15c-.55-.64-1.03-1.38-1.18-2.13-.4-1.18.2-3.36-.99-3.36s-.99-1.99-1.58-1.99-1.58-1.97-2.57-1.18c-.07.05-.14.09-.21.1-.26-.47-.47-.96-.59-1.49-.18-.81-.15-1.41.02-1.9.86-.44,1.41.66,1.96-.07.5-.66-.25-1.19-.27-1.93.82-.7,1.78-1.56,2.57-3.07.03-.04.06-.07.09-.11.08.4,1.63,7.93,3.55,9.85.28.28.62.57,1,.89.08.36.23.74.58,1.09.68.69,1.17.52,1.57.56.22.17.44.33.66.51.05.09.1.19.14.32.59,1.59-.79,2.38.59,3.17,1.39.79,2.77.59,3.17,1.58.4.99,0,.99.2,2.18.18,1.08.69,2.95,1.52,3.44.7,1.69,1.77,3.12,3.62,3.68,3.96,1.19,6.73-2.77,8.31-3.17,0,0,0-.04.01-.07,1.45.29,2.46.3,3.15-.92.08-.15.17-.27.25-.38.41,1,.54,2.16.54,2.16,0,0,.11,0,.3-.04.04,1.29,1.56.89,2.08.04.12-.2.31-.33.53-.42.41-.08.83-.15,1.26-.25.72,0,1.48.08,1.96.08s.63-.37.84-.75c2.31-.54,3.41,0,4.5,2.53.97,2.26,1.67,10.84,1.47,15.43-.34,1.2-.76,2.63-1.27,4-1.82,1.84-5.91,2.88-12.46,1.94-8.31-1.19-26.91-.79-29.68.4-2.77,1.18-3.17.39-6.33,3.16-.12.11-.22.22-.32.34-.99.5-1.98,1.03-1.86,2.03.2,1.59-.39,3.57-.2,4.36.11.42.26,1.49.17,2.57-.24.26-.55.46-.97.6-3.56,1.18-17.41-3.17-23.35-11.48-5.93-8.31-3.16-13.85-3.56-16.62-.4-2.77-6.33-8.31-8.71-7.91-1.65.27-10.55,2.07-17.42,3.02-.75-.42-1.61-.83-2.56-.44-1.98.79-4.95.39-6.53.59-.42.05-1.15.09-2,.13-5.68-.36-13.6-.87-14.22-2.11-.79-1.58.39-5.94-1.19-6.33-1.58-.39-8.31.8-11.08,1.98-.59.25-1.57.36-2.75.39-1.17-.03-3.18-.36-4.32-.08-3.79-.17-7.82-.39-9.15.49-1.68,1.12-5.35,4.43-8.9,6.68-1.07.05-2.33-.1-3.37.64-1.38.99-2.96,1.98-4.15,2.38-1.19.39-4.75,1.78-5.94,3.17-1.03,1.21-8.25,5.88-11.39,7.97-1.1.62-2.22,1.24-3.35,1.85-1.62.66-3.63,1.43-5.77,3.04-2.7,1.36-4.97,2.4-6.19,2.77-3.96,1.18-13.45,7.91-15.04,15.43-.07.34-.14.72-.21,1.1-.89,1.52-1.58,6.53-1.76,7.81-.2,1.38,0,6.33-1.39,7.91-1.39,1.58-.59,4.94-1.39,7.12-.79,2.18-3.56,4.75-4.15,6.14-.59,1.39-2.38,3.56-1.98,5.14.39,1.59-2.18,3.56-2.18,4.95s-.59,3.56.2,4.75c.79,1.18,1.18,2.77,1.78,4.15.59,1.38.99,2.57,2.18,3.56,1.18.99,1.38,2.37,3.36,3.17.72.29,1.22.31,1.64.3,5.95,5.39,12.89,11.19,18.04,16.34.56,1.45,2.95,4.22,4.46,6.11.77.97,1.36,1.27,1.85,1.45.4.67.71,1.31.92,1.91.12.34.23.65.34.96-.17.67-.31,1.39.05,2.01.66,1.16,1.07,2.19,2.58,3.42,1.07,1.36,2.28,1.9,4.15,2.31,0,0,1.26,1.39,3.59,2.43.57.43,1.22.69,1.94.7,1.26.33,2.72.54,4.37.43,3.01-.19,10.66-.21,19.47.16.04.01.08.02.11.04,2.58.79,6.33.79,8.12.79.38,0,.84-.12,1.33-.27,2.58.19,5.16.42,7.66.69,1.5.72,3.22,1.15,4.86.77.16-.04.28-.07.42-.11,1.42.2,2.79.42,4.09.66.01.02.03.03.04.04,1.78,1.98,2.12,2.56,4.36,1.98.33-.09.62-.16.89-.21.88.84,1.05,1.83,1.4,2.74-.04.24-.02.46.09.63.11.17.29.3.49.43.22.27.5.53.89.75,1.22.7,3.37.47,5.63.24,2.08.09,4.56-.13,5.45.76.7.7,1.31-.09,2.03.25.23.21.46.45.69.69.08.13.16.27.25.44.5,1.01.97,1.23,1.36,1.32.37.45.72.92,1.04,1.39.08.53.37.96.74,1.33.82,1.81.93,3.78-.57,5.85-3.17,4.35,0,9.5,4.75,11.07,1.1.37,2.39.83,3.73,1.38,2.12,1.02,4.36,2.17,5.66,3.23.09.07.17.15.25.22.27.25.5.49.65.72,1.38,2.18-.8,3.76.39,5.14.55.64,1.21,1.48,1.56,2.42-1.96,6.2-10.11,14.29-8.69,18.55,1.58,4.75,5.54,4.75,7.12,7.12,1.58,2.37,7.91,9.89,10.68,11.08,0,0,5.62.31,16.64-1.56,3.17-.45,7.06-1.27,11.46-2.36,4.95-1.18,10.55-2.72,16.79-4.72,5.16-1.58,10.62-3.33,16.25-5.21.86-.29,1.83-.89,2.85-1.65,5.74-2.27,11.84-4.86,18.32-7.85,0,0,7.49-9.18,13.45-16.2,5.84-4.74,10.5-11.74,12.26-14.97.46-.84.87-1.73,1.23-2.67,1.57-3.67,2.43-7.82,1.54-12.07-.66-3.18-.34-6.44.6-9.46,1.34-1.95,2.44-4,2.76-5.88,2.09-3.19,4.78-5.57,7.32-6.43,5.93-1.98,7.12-8.7,7.52-11.87.29-2.32,1.86-4.2,3.46-5.06,1.58-.09,3.17-.09,3.17-.88,0-.03,0-.07.01-.1,1.05-.76,1.86-2.29,3.25-4.25.47-.67,1.4-1.74,2.57-3.05,1.74-1.11,4.21-3.05,5.35-4.47,1.58-1.98,6.92-7.12,7.12-8.71.09-.7.07-1.93.17-3.22.7-1.58,1.43-3.36,2.09-5.06,1.24-1.6,2.12-3.82,1.89-5.06.38-1.04.61-1.7.61-1.7,0,0-2.77-1.18-3.96-1.18-.28,0-1.31.68-2.76,1.73-.63-.3-1.24-.5-1.6.04-.74,1.11-5.12,4.47-6.49,5.87-3.76,2.67-7.41,5.01-8.94,5.01-1.99,0-3.34.74-4.23,1.6,0-.55-.18-1.24-.83-2.05-.11-.27-.26-.52-.48-.74-.27-.27-.67-.66-1.15-1.14-1.86-2.2-3.8-4.71-4.6-5.19-.27-.17-.65-.22-1.05-.24-1.62-1.51-3.28-2.99-4.69-4.12-1.11-.89-2.77-2.39-4.58-4.2-.63-1.37-1.33-2.87-1.95-3.12-.99-.4-2.18-1.59-2.57-2.77-.4-1.18-3.96-2.96-4.16-5.54-.2-2.57-.79-4.75-1.58-6.13-.79-1.38.59-1.38-.4-3.56-.99-2.18-1.78-4.35-2.17-5.54-.4-1.18-1.78-6.33-3.37-6.92-.04-.02-.09-.03-.13-.04-.15-.21-.31-.4-.46-.55-.91-.92-2.12-2.07-3.26-3.14.22,0,.49.04.88.16,1.98.6,2.18-.39,1.98-2.17-.04-.38-.17-.77-.33-1.18.94.71,1.97,1.65,3.04,2.75.13.66.22,1.28.26,1.78.2,2.37,1.39,3.56,3.16,4.75,1.78,1.19,3.36,3.96,4.16,5.35.79,1.38,1.58,1.98,2.18,4.75.59,2.77,1.58,6.53,2.97,7.32,1.38.79,4.75,3.56,5.94,6.33,1.19,2.76,3.76,5.54,4.94,5.93,1.19.39,3.96-.98,4.95,1.98.99,2.97,1.98,5.15,2.57,6.33.16.33.34.61.57.86,0,.81.5,3.05,7.14-.26,1.19-.59,2.36-1.21,3.5-1.85,2.59-1.18,5.16-2.55,6.59-3.69,2.97-2.37,7.52-5.34,9.69-10.09,2.18-4.75,5.15-14.05,7.32-16.02,1.34-1.21,3.57-7.21,5.1-12.44,1.48-3.59,2.03-7.54,2.35-11.58.69-2.46,1.57-4.76,1.06-5.26-.64-.64-2.94-1.4-4.02-.34-.38-.34-.76-.73-1.13-1.24-1.98-2.78-1.98-5.54-3.17-4.75-.15.11-.34.42-.53.86-.89-.28-2.19.39-2.04,2.11.08.93.18,2.06.2,3.15-1.18,3.4-2.66,6.94-4.35,6.94-3.02,0-11.39-6.08-14.58-6.67-.24-.13-.6-.15-1.21-.1-1.23-.11-2.66-.5-3.8-1.24-.14-1.37.8-3.09.8-3.67s-1.19-.79-1.78-1.39c-.59-.59,0-2.17.79-3.56.16-.28.16-.55.09-.82.65-1.61,1.15-2.84,1.12-3.59.35.05.58.28.77.65.29.58.68.31,1.27-.19.71.07,1.6,0,2.69-.4,0,0,1.58.39,1.98,2.77.35,2.11,1.64,4.22,5.25,5.49.1.15.19.29.28.44,1.39,2.38,1.98,2.18,3.17.99,1.19-1.18,2.77-1.78,3.96-1.39,1.19.39,2.57-2.17,2.77-2.77.2-.59,1.58-.98,2.57-.79.99.2,1.38,1.58,3.17,1.58.39,0,.87-.14,1.36-.37,2.57.07,4.41-2.89,5.16-4.77.1-.25.25-.62.44-1.05,1.59-2.38,4.24-5.03,5.1-5.88.7-.7.63-2.27,1.28-3.14.56-.34,1.14-.55,1.73-.59,2.03.11,4.08.98,6.29,1.16.14,0,.28.04.41.07,1.28.59,2.45,1.47,3.35,2.87.12.43.2.9.2,1.42,0,1.1.59,2.06,1.3,2.72.03.15.06.29.09.44,0,0,0,.53.69.12.73.41,1.43.49,1.68.07.59-.99,2.38-3.76,3.96-3.76s2.37,3.76,4.75,5.15c.36.21.66.57.93,1.02.5,1.79.79,4.04.66,6.89-.4,8.32-.4,19,1.98,24.14,0,0,.77-2.68,1.77-7.53,0,0,0,0,0,0,.75,1.48,6.25-20.97,4.65-54.65Z"/><path class="cls-3" d="m325.72,622.4c-1.78-1.78-8.31-4.16-9.5-6.53-1.19-2.37-8.9-16.62-11.28-17.21-2.37-.6-4.75-4.75-5.94-6.53-1.18-1.78-.59-1.78-4.16-1.78s-2.97-4.75-1.19-8.9c1.78-4.16-1.18-7.73-1.18-7.73,0,0-1.19-4.15-1.19-7.72s-1.78-5.93-3.56-9.5c-1.78-3.56-7.72-7.12-5.34-10.09,2.37-2.97,4.16-2.37,2.37-6.53-1.78-4.15-5.34-2.97-4.75-8.31.59-5.34-3.56-10.09-4.15-5.34-.59,4.74-3.56,5.93-4.16,1.78-.59-4.15,2.37,80.13,57.57,140.08,0,0,.59-9.5-2.38-12.47-2.97-2.96-5.93-4.74-3.56-7.12,2.37-2.37,6.53,2.97,7.72-.59,1.18-3.56.59-13.05,0-16.62-.59-3.56-3.56-7.13-5.34-8.9Z"/><path class="cls-3" d="m278.84,503.09c8.31-5.34,3.56-11.87,5.34-15.43,1.78-3.56-.59-5.34-1.78-8.31-1.19-2.97-.59-7.12.59-10.09,1.19-2.97,1.19-4.16-1.78-1.78-2.97,2.37-2.38,5.34-1.78,8.9.59,3.56,1.78,7.72,1.78,10.68s-2.97,4.15-.59,5.93c2.37,1.78-4.47,11.82-1.78,10.09Z"/><path class="cls-3" d="m395.76,352.93c2.38-2.38,7.72-10.68,13.66-10.68s8.31-.59,8.31-3.56-3.56-5.34-5.34-4.15c-1.78,1.19-3.56,2.97-4.16.59-.59-2.38,2.97-7.13,4.75-9.5,1.78-2.38,4.15-5.34,1.78-5.93-2.37-.59-5.34,1.78-7.12,2.97-1.78,1.19-11.28,3.56-13.06,7.12-1.78,3.56-1.78,2.37-5.93,3.56-4.16,1.19-5.93,3.56-10.09,4.75-2.37.68-4.36.58-6.07.82,1.37-1.11,2.66-2.49,3.1-3.79,1.19-3.56-1.78-8.91,1.78-9.5,3.56-.59.59,5.94,4.15,4.75,3.56-1.19,1.19-4.75,5.34-7.72,4.15-2.97,2.97-8.31,5.34-8.9,2.37-.6-2.38,5.34,1.78,3.56,4.16-1.78,8.91-3.56,11.87-5.93,2.97-2.37,2.97-6.53,8.31-5.34,5.34,1.18,5.34.59,7.12,5.34,1.78,4.75,1.78,8.31,4.16,5.93,2.37-2.37,7.71-4.16,10.09-5.93,2.37-1.78-4.75-5.93-1.19-7.71,3.56-1.78,6.53-4.75,9.5-1.78,2.97,2.97,5.93-.59,5.93,3.56s-.59,7.12,1.78,6.53c2.38-.59.59-6.53,3.56-7.12,2.97-.59,7.12-3.56,7.71-5.34.59-1.78-1.78-4.16-4.15-2.37-2.37,1.78-4.75,5.34-4.75,5.34,0,0,0-3.56-1.78-5.93-1.78-2.37,4.16-7.12,7.72-8.31,3.56-1.19,5.93-5.93,10.09-5.93s9.5,2.37,9.5.59,4.16-.59,11.28-3.56c7.12-2.97,4.75,1.18,10.68-.59,5.93-1.78,15.43-2.97,17.81-7.12,0,0-90.81-4.75-160.26,54.01-69.44,58.76-77.75,118.71-77.75,118.71,0,0,10.09-8.9,10.09-13.65s2.97-12.47,6.53-14.84c3.56-2.38,2.37-6.53,7.12-4.75,4.75,1.78,9.5-.59,10.68-4.16,1.18-3.56,3.56-5.34,6.53-7.12,2.97-1.78,2.38-7.72,5.34-8.31,2.97-.59,4.15,1.78,5.34,4.16,1.19,2.37,4.16,5.34,7.72,3.56,3.56-1.78,4.75-4.75,8.31-6.53,3.56-1.78,9.5,1.19,10.09,2.97.6,1.78-3.56,8.31,2.97,8.31s8.31-1.19,8.31-4.75-4.15-6.53-4.15-8.91,1.19-2.97,2.97-2.97,2.38,1.78,4.75.59c2.37-1.19,4.75-4.16,5.34-6.53.59-2.37-1.18-4.15-2.97-2.97-1.78,1.19-5.34,5.34-5.94,2.97-.59-2.37,1.79-4.15,3.57-6.53,1.78-2.37,8.31-5.93,6.53-3.56-1.78,2.37-.59,4.15,1.78,4.15s3.56-3.56,4.75-7.12c1.19-3.56,7.12-8.31,7.72-10.09.59-1.78-1.19-2.97,1.18-5.34Z"/><path class="cls-3" d="m510.32,310.79c0-2.38-1.78-5.94-2.97-3.56-1.18,2.38-4.75,4.75-5.34,2.97-.59-1.78-5.34-2.38-5.94-4.15l-.59-1.78s-1.19-1.78-5.34-2.38c-4.15-.59-5.93,0-10.68,1.19-4.75,1.19-8.91,0-7.72,5.94,1.18,5.93,5.94,5.34,5.94,5.34,0,0-2.97,4.15-5.94,4.75-2.97.59-7.12,4.75-10.68,6.53-3.56,1.78-5.93,1.78-10.68,3.56-4.75,1.78-16.03,13.06-17.81,14.84-1.51,1.51-1.78,4.15-1.78,8.9s-3.56,10.09-3.56,13.65,1.78,2.97,4.75.59c2.97-2.38,2.97-4.75,5.34-4.75s2.97-3.56,5.34-4.75c2.38-1.19,2.38,3.56,4.75,1.19,2.37-2.37,0-3.56,2.37-4.16,2.37-.59,3.56,0,5.34-.59,1.78-.59,2.37-1.78,5.93-4.15,3.56-2.37,5.34-5.93,8.31-5.93s9.5.59,4.16,2.97c-5.34,2.37-7.12,7.12-5.34,7.12s2.97-1.78,5.93-2.97c2.97-1.19,3.56,1.19,8.31-1.78,4.75-2.97,4.75,0,4.75,0,0,0,2.97,0,7.12-2.97,4.16-2.97,11.28-5.93,13.06-5.93s7.13-4.75,8.31-7.72c1.19-2.97,1.78-11.28,4.16-12.46,2.37-1.19,7.12-5.34,7.12-5.34,0,0-1.78-5.34-5.34-4.75-3.56.59-11.28,2.97-11.28.59Z"/><path class="cls-3" d="m439.1,319.1c1.78-1.78,4.98-2.84,6.53-5.94,2.38-4.75,2.97-4.75,1.19-7.12-1.78-2.37-4.75,2.37-6.53,5.34-1.78,2.97-7.12,2.97-10.68,5.34-3.56,2.37,1.18,5.93,4.15,5.93s3.56-1.78,5.34-3.56Z"/><path class="cls-3" d="m484.2,292.98s-1.78-2.37-3.56-2.37c-4.15,0-8.9,2.37-9.49,5.34-.6,2.97,0,4.16,2.97,4.16s10.09-4.16,13.65-2.37c3.56,1.78,8.31,5.93,8.9,3.56.59-2.37,1.19-4.75,1.19-7.12s-1.19-4.16-4.75-2.37c-3.56,1.78-8.9,1.18-8.9,1.18Z"/><path class="cls-3" d="m672.95,679.38c-.59,1.78-4.75,6.53-8.9,6.53s-4.16,2.96-7.72,7.72c-3.56,4.75,3.56,3.56,1.78,5.34-1.78,1.77-4.75,1.18-7.72,2.97-2.97,1.78-2.97,5.34-2.97,5.34l-2.37,2.37s-5.34,4.15-.6,1.77c4.75-2.37,26.71-18.99,27.9-20.77,1.18-1.78,2.97-4.75,5.34-8.9,2.37-4.16-2.37-10.1-2.37-10.1-2.97,1.18-1.78,5.94-2.37,7.72Z"/><path class="cls-1" d="m512.12,237.12c151.7,0,274.67,122.97,274.67,274.67s-122.97,274.67-274.67,274.67-274.67-122.97-274.67-274.67,122.97-274.67,274.67-274.67m0-9.82c-38.4,0-75.66,7.52-110.74,22.36-33.88,14.33-64.3,34.84-90.42,60.96-26.12,26.12-46.63,56.55-60.96,90.42-14.84,35.08-22.36,72.34-22.36,110.74s7.52,75.66,22.36,110.74c14.33,33.88,34.84,64.3,60.96,90.42,26.12,26.12,56.55,46.63,90.42,60.96,35.08,14.84,72.34,22.36,110.74,22.36s75.66-7.52,110.74-22.36c33.88-14.33,64.3-34.84,90.42-60.96,26.12-26.12,46.63-56.55,60.96-90.42,14.84-35.08,22.36-72.34,22.36-110.74s-7.52-75.66-22.36-110.74c-14.33-33.88-34.84-64.3-60.96-90.42-26.12-26.12-56.55-46.63-90.42-60.96-35.08-14.84-72.34-22.36-110.74-22.36h0Z"/></g><g id="Note-simplified"><path class="cls-3" d="m923.74,693.97v158.27c-.21,15.53-13.69,30.31-32.94,34.75-21.9,5.05-42.97-5.19-47.06-22.89-4.08-17.7,10.36-36.14,32.26-41.2,14.55-3.36,28.72.04,37.8,7.88v-82.91l-118.26,24.7v108.52c-.22,15.53-13.7,30.31-32.94,34.75-21.9,5.06-42.97-5.19-47.05-22.88-4.09-17.7,10.35-36.14,32.26-41.2,14.55-3.36,28.73.04,37.81,7.88v-139.46c0-2.99,2.1-5.57,5.02-6.19l125.5-26.22c3.93-.81,7.61,2.18,7.61,6.19Z"/></g><path id="Frame-outlined" class="cls-1" d="m652.1,888.79H145.42c-5.69,0-10.3-4.61-10.3-10.3V145.94c0-5.69,4.61-10.3,10.3-10.3h732.54c5.69,0,10.3,4.61,10.3,10.3v476.64c0,2.56-1.87,4.85-4.43,5.1-2.93.28-5.39-2.02-5.39-4.89V149.38c0-2.16-1.75-3.91-3.91-3.91H148.85c-2.15,0-3.91,1.76-3.91,3.91v725.68c0,2.15,1.76,3.91,3.91,3.91h503.04c2.56,0,4.85,1.88,5.1,4.43.28,2.93-2.02,5.39-4.89,5.39Z"/></symbol></defs><g id="App_Icon_and_Badge"><g id="Main-2"><use width="1024" height="1024" xlink:href="#Icon"/></g></g></svg>