<?xml version="1.0" encoding="UTF-8"?><svg id="Layer_2" xmlns="http://www.w3.org/2000/svg" viewBox="0 0 889.83 884.56"><defs><style>.cls-1{fill:#fff;}.cls-2{fill:#f9b718;}</style></defs><g id="Icon"><ellipse class="cls-1" cx="624.35" cy="533.42" rx="141.65" ry="114.46" transform="translate(-103.99 154.12) rotate(-13)"/><ellipse class="cls-1" cx="211.1" cy="620.32" rx="141.65" ry="114.46" transform="translate(-134.13 63.39) rotate(-13)"/><rect class="cls-1" x="693.83" y="70.81" width="70.91" height="453.43"/><rect class="cls-1" x="280.62" y="156.37" width="70.91" height="453.43"/><path class="cls-1" d="M747.13,217.3l-439.85,91.9c-13.75,2.87-26.66-7.62-26.66-21.67V114.05c0-10.48,7.35-19.52,17.61-21.67L738.07.48c13.75-2.87,26.66,7.62,26.66,21.67v173.49c0,10.48-7.35,19.52-17.61,21.67Z"/><rect class="cls-2" x="0" y="808.55" width="889.83" height="76" rx="9.21" ry="9.21"/></g></svg>