<?xml version="1.0" encoding="UTF-8"?><svg id="Icon" xmlns="http://www.w3.org/2000/svg" viewBox="0 0 1080 1080"><defs><style>.cls-1{fill:none;stroke-linecap:round;stroke-width:15px;}.cls-1,.cls-2{stroke:#f9b718;stroke-miterlimit:10;}.cls-2,.cls-3{fill:#f9b718;}.cls-3{stroke-width:0px;}</style></defs><g id="Simplified_globe"><path class="cls-3" d="m579.03,560.47c8.17-2.72,3.81-4.63,1.63-5.45,0,0-7.35-3.54-9.26-2.72-1.9.82-4.9,3.81-4.63,5.99.27,2.18,4.08,4.91,12.25,2.18Z"/><path class="cls-3" d="m511.94,457.45c0,.86,1.21,1.9,2.77,1.38,1.55-.52,1.9-1.73,2.59-2.42.69-.69,1.39.69,2.6.52,1.21-.17,1.55-1.38,2.42-1.72.87-.35.87,1.03,1.04,2.07.17,1.03.86,1.03,2.94-.69,2.07-1.73,6.92-2.42,9.34-2.59,2.42-.17,4.67-2.25,3.8-3.63-.86-1.38-.34-4.32-.86-6.05-.52-1.73-2.59-.86-3.8-.86s-.69,1.38-1.55,2.07c-.86.69-.52.17,0-1.21.36-.97-.38-1.51-.85-1.75.47.16.94.06,2.75-.5,2.25-.69,2.42-2.25,3.11-3.98.69-1.73-1.73-4.66-2.59-5.7-.86-1.04-1.73-.87-1.73-.87.52-1.38-1.73-4.32-2.6-5.7-.86-1.38-3.46-1.21-5.36-1.9-1.9-.69-.69-2.42-.86-3.8-.17-1.38-1.04-3.11-1.73-3.98-.69-.86,0-2.59-.86-2.94-.86-.35-1.55,1.21-2.08.34-.52-.86,1.04-1.56.35-1.9-.7-.35-.7.34-.86-.52-.17-.86.03-.7,1.66-.97,1.64-.28,3.54-2.72,4.9-4.36,1.37-1.63,0-4.9-2.45-4.9s-4.36,2.45-7.36,2.18c-2.99-.28-2.18-3-1.63-4.36.54-1.36.49-2.84-.54-3.27-1.09-.46-2.71,1.84-4.09,2.71-1.38.86-2.07,1.9-3.28,2.59-1.21.69.35,1.56-.17,2.08-.52.52-1.55-.69-2.25.69-.69,1.38,2.08,1.21.86,2.25-1.21,1.04-.34,1.55.35,2.94.69,1.38-.35,1.9.52,4.15.87,2.25,1.9,1.56,2.08,3.63.17,2.08-.17,2.94-1.38,1.9-1.21-1.04-.86-4.15-1.73-4.15s-.35,1.56-2.08,2.25c-1.73.69-.52,2.08-.34,3.46.17,1.38,1.39.52,1.9,1.38.52.87,1.73,1.73,2.76,1.21.57-.28.77-.78.84-1.17-.01.93.15,2.8,1.41,3.93,1.73,1.56,2.94,3.46,2.42,7.26-.52,3.8-2.59,2.07-2.77,4.32-.17,2.25,2.59,4.49.86,6.74-1.73,2.25-3.28,6.92-3.28,8.3s1.38-.35,3.11-.52c1.73-.18,2.94.34,3.98-.52,1.04-.87-.87-2.25.69-1.56,1.56.69.52,1.9-.69,3.29-1.21,1.38-2.42.34-3.63.34s-1.39,1.39-1.9,2.59c-.52,1.21-1.21-.86-2.25-1.38-1.04-.52-2.59.17-3.28,1.38-.69,1.21-.52,2.77-1.73,3.46-1.21.69-2.59,2.59-.52,2.25,2.07-.35,4.15-2.07,6.05-1.73,1.9.34,2.77.86,4.15.52,1.39-.34,0-1.56-.52-3.11-.52-1.55,1.38-.34,1.38.52Z"/><path class="cls-3" d="m488.26,449.49c-1.38.52-1.9.52-2.07,1.56-.17,1.04,0,1.9.52,2.25.52.35-.17,2.07,1.73,1.38,1.9-.69,1.39-2.25,3.46-2.94,2.08-.69,2.42.17,4.32-.86,1.9-1.04,1.73-2.59,3.11-3.63,1.38-1.04,3.46.52,4.67-2.25,1.21-2.77-.69-3.11-.69-4.32s1.56-1.9.86-2.6c-.69-.69-1.21,1.39-2.25.87-1.04-.52.86-.87,1.73-2.77.86-1.9-1.56-4.32-.18-7.26,1.39-2.94,1.39-3.46-.34-5.19-1.73-1.73,1.55-1.38-.52-3.11-2.07-1.73-3.63-4.84-5.36-3.63-1.73,1.21-1.73-1.04-3.98-.86-.93.07-2.07,1.04-1.56,2.42.52,1.38-.86,1.56-1.73,3.28-.86,1.73-2.07,1.9-.86,3.81,1.21,1.9,1.9,2.94,1.04,4.32-.86,1.38-2.42,1.55-3.63,2.76-1.21,1.21-6.05,3.11-5.88,5.19.17,2.07-1.38,5.18-.69,6.39.69,1.21.86,2.08,3.11.17,2.25-1.9,4.84-4.84,6.23-4.32,1.38.52.35,1.9-.69,2.08-1.04.17-4.67,2.59-4.67,2.59,0,0,.52,1.73-.52,1.73s-2.08,0-2.59.87c-.52.86-.69,3.46.17,4.49.86,1.04-.17,1.56.69,2.94.86,1.38,2.25,2.59,3.11.69.86-1.9.17-2.94.17-3.98s.34-2.25,1.56-2.42c1.21-.17,1.04-2.42,2.42-2.08,1.38.35.69,1.9-.7,2.42Z"/><path class="cls-3" d="m496.21,363.21c-.52-1.73-1.21,1.03-2.59,3.11-1.39,2.07,1.39,4.49,2.42,6.92,1.04,2.42,2.59,6.4,3.98,6.92,1.38.52,4.15-.35,4.33-1.91.17-1.56,2.42-1.21,3.98-1.9,1.55-.69,1.21-1.39,2.94-3.29,1.73-1.9,3.11-1.55,1.38.34-1.73,1.9-.86,3.81-.86,3.12s.69-1.73,5.53-3.46c4.84-1.73,2.94-4.67,2.08-6.74-.86-2.08-2.08-2.59-3.81-3.29-1.73-.69-2.08-1.73-2.42-3.46-.34-1.73-2.25-.69-2.94-.17-.69.52-.86,2.59-1.9,2.42-1.04-.17-.35-3.63-.35-3.63-.52-1.9-7.43,2.94-8.99,5.18-1.55,2.25-1.21,2.77-2.42,2.77s.17-1.21-.35-2.94Z"/><path class="cls-3" d="m819.78,530.48c-.75-28.64-5.93-62.91-21.19-97.38-8.63-21.23-20.46-42.91-36.56-63.95-80.59-105.31-206.1-109.27-206.1-109.27,0,0,.15.26.41.66-.68-.07-1.35-.14-2.02-.2,0,0,1.44.48,2.77,1.31.75,1.05,1.81,2.36,2.99,3.3.72.58,1.77.87,2.95,1.05,1.78.4,3.77.57,5.12.57,2.77,0,8.3,7.61,11.76,6.23,1.7-.68,3.4-1.36,4.77-1.63.86.18,1.77.51,2.85,1.04.58,1.99-1.43,2.72-2.79,6.12-1.39,3.46,2.08,5.53,6.23,4.84,3.22-.54,2.7-3.57,3.6-4.9.96.74,2.12,1.29,3.78,1.44.88.08,1.69.12,2.44.15,1.87,1.03,4.02,2.02,6.47,2,.1.16.19.35.28.54-1.55,1.34-4.89,4.53-2.73,5.62.91.45,2.26.61,3.74.71.27.74.78,1.31,1.8,1.6,2.59.74,4.29-.6,6.06.28.05.06.12.11.17.18.58.77,1.16,1.22,1.74,1.52,2.23,2.15,4.94,2.31,4.94,4.01,0,1.84-3.69,1.38-6.92.92-3.08-.44-7.84-5.06-10.67-1.46-1.2.24-2.02.85-2.24,1.93-.12.59-.21,1.27-.26,2-1.62,2.73-2.18,4.75,1.18,6.76.58.35,1.19.66,1.81.93,1.04.86,2.4,1.58,4.19,2.07,7.61,2.07,8.3,5.53,10.37,7.61,1.08,1.08,1.6-.64,2.72-2.54.84.39,1.64.79,2.31,1.17-.44,1.16-.62,2.37-.19,3.45.35.89.62,1.82.91,2.75-.24,1.18-.17,2.28.92,3.02.19.12.41.24.62.36.98,1.42,2.5,2.68,5.14,3.56,6.23,2.08,1.39,7.61,6.92,7.61.25,0,.51,0,.77,0,.43.14.95.16,1.58.03,4.85.12,9.71.46,11.49-.72.89-.59,1.64-1.43,2.39-1.99.74-.14,1.47-.25,2.16-.35.31.19.64.48.99.95.85,1.13,2.04,2.14,3.15,2.94-.1.38-.23.75-.4,1.1-.99-.13-2.01-.15-2.75.1-1.11.37-2.41.74-3.8,1.22-2.25-.93-3.46-1.79-5.19-.07-2.31,2.3-5.99,0-8.3,2.76-2.31,2.77-4.61,1.85-4.61,5.53,0,.41-.04.77-.09,1.1-.52.18-1.04.35-1.52.51-2.08.69-9.68-.69-11.07,2.77-.46,1.14-.84,2.9-1.14,4.81-1.2,1.08-2.16,1.67-.94,3.72.21.36.31.69.33,1-.02.24-.05.48-.07.72-.38,1.41-1.98,2.6-1.65,4.27.18.92.45,2.14.72,3.35-.83,2.7-2.35,5.87-4.18,6.33-.45.11-.97.05-1.54-.12-.67-.68-.98-1.73-1.92-1.73-.4,0-.84.08-1.27.15-1.12-.69-2.28-1.47-3.41-2.16-.64-.71-1.31-1.22-1.31-1.22,0,0-.36.05-.83.05-.52-.24-1.02-.42-1.47-.51-.14-.03-.28-.08-.42-.11-.23-.21-.41-.46-.51-.81-.19-.77-.79-.57-1.48-.25-1.71-1.46-2.01-3.66,1.02-3.66.77,0,1.72-.05,2.74-.15,1.71.11,3.26-.08,3.26-.08,0,0,.34-.23.86-.63,3.32-.82,6.29-2.29,6.29-4.67,0-.99-.24-1.83-.64-2.55.27-.5.41-.92.41-.92,0,0-.39.07-.95.15-.99-1.21-2.48-2.04-3.91-2.73.07-1.07-.05-2.02-1.13-2.02-1.84,0-5.99-1.85-5.99-1.85,0,0-2.89-.32-4.65.11-2.86-.55-5.63-.85-7.34-.57-.22.04-.48.08-.76.12-.18,0-.34.02-.47.08-.84.14-1.86.31-3.01.54-.8-.24-1.67-.4-2.44-.05-2.08.92-5.07,0-5.3,1.62-.03.25-.1.45-.17.63-.61.23-1.21.49-1.8.76-.11,0-.22,0-.33,0-.3,0-.89.39-1.58.98-2.72,1.56-4.88,3.63-5.57,6.39-.76,3.05-1.05,5.63-1.36,8.02-.58.87-.87,1.78-.71,2.58.23,1.15-1.15,2.54-1.84,1.61-.69-.92-2.07-1.15-2.31.46-.23,1.62-2.53,3-1.61,4.15.92,1.15,2.07,0,2.31,1.39.11.68-.33,2.09-.95,3.18-.26.35-.53.72-.8,1.08-.44.43-.89.56-1.25.12-1.15-1.38-1.39.92-3.46,3-2.08,2.08-3.46,4.38-3.23,6,.09.62.14,1.48.1,2.33-.53,1.02-.99,2.02-1.35,3.02-1.27.48-1.28,1.6-1.28,2.95s-1.39,3.23-.92,4.61c.31.93.83.72,1.13.83,0,.44,0,.9.03,1.39-.31.61-.8,1.03-.47,1.69.17.35.48.65.79.97.18.89.43,1.8.79,2.69-.08,1.49.55,1.98,1.18,3.03.69,1.15,1.61,1.84,2.53,1.84.07,0,.1-.03.14-.04.26.17.5.35.78.51.99.54,1.93,1.01,2.81,1.44.21.27.46.34.73.35.78.36,1.51.69,2.18.99.08.18.17.4.26.68.46,1.38,1.39,2.53,2.08,2.53s1.38,3.69,3.23,2.08c.32-.28.56-.46.77-.58.12.32.22.66.29,1.03-.1.22-.22.45-.36.7-.92,1.61-.7,2.07.23,3.22.92,1.15.23,2.54,1.15,2.54.4,0,.76-.32,1.12-.72,1.73,2.29,4.51,3.24,8.33.26,6.23-4.84,8.99-12.44,8.99-16.6,0-1.5-1.27-3.82-2.83-6.3.54-.6.9-1.27.29-2-1.15-1.39-.92-2.08-1.84-3.46-.92-1.38-2.3-.69-2.53-2.07-.23-1.38-1.15-2.08-1.15-2.08,0,0-.46-1.84,1.62-3.22,2.05-1.37,2.98-3.41,3.44-4.8.98-1.27,1.93-2.64,2.69-4.08.16-.17.27-.41.34-.67.7-1.45,1.21-2.96,1.37-4.51,0,0,2.08.32,2.73,2.89-.68,1.93-1.55,3.51-1.35,4.72.09.54.36,1.16.58,1.72-.22.64-.42,1.26-.62,1.86-.71.2-.85.46-.66,1.03.05.15.09.38.12.65-1.83,5.79-2.29,9.04.58,11.34.91.73,2.07,1.56,3.27,2.38.22.26.44.48.65.62.69.46-.92,2.54,0,2.54.66,0,1.31-.71,1.81-1.53.95.62,1.85,1.19,2.61,1.66-.3.12-.59.29-.72.57-.46.92.46,1.15,1.61.69.26-.11.48-.2.66-.3.3.19.49.3.49.3,0,0,2.07-4.84,4.84-5.53.02,0,.05-.02.08-.03,1.14.05,2.31.09,3.38-.67,1.62-1.15,2.54.23,3.92-1.62.25-.34.42-.55.57-.7.14-.02.28-.03.42-.03,0,.26-.07.72-.07,1.19,0,.82,1.03.03,1.88-.18.09.19.15.4.19.64.07.39.08.73.08,1.07-.03.1-.06.19-.08.32-.23,1.61-.92,2.77-2.3,2.77s-4.38-.23-4.61.92c-.23,1.16-.7,2.3-1.61,1.85-.92-.46-1.61.46-3.23,1.38-1.49.85-1.41,1.71-1.2,2.93-.07.17-.13.34-.18.53-.08.33-.25.76-.48,1.25-.46.37-1.02.71-1.36,1.28-.69,1.15-2.08.69-2.54,2.3-.24.84-.11,1.98-.09,2.86-.29.4-.58.79-.87,1.18-.93-.52-1.18-2.57-1.81-1.51-.69,1.15-1.61,2.77-.92,3.92.14.23.2.47.22.7-.41.48-.82.92-1.21,1.32-.66-.52-1.1-1.97-1.55-.63-.46,1.38-.46,2.53-2.53,3.46-2.07.92-3.46,1.84-5.07,1.84s-3.22.23-3.69,1.84c-.1.36-.09.67-.03.94-.33.44-.65.95-.99,1.48-.4.18-.55.58-.68,1.02-.42.6-.87,1.17-1.37,1.59-.06.01-.1.04-.16.04-.83.09-1.81,0-2.55-.23-.11-.69.05-1.6.24-2.38,1.32-1.24,1.07-2.51.47-2.92-.69-.46-2.54-.92-3,0-.2.4-.44.96-.75,1.38h-1.78c-.92-.97-1.05-1.3-2.54-.23-.51.36-1.08.68-1.64.98-1.66.6-3.42,1.64-4.82,3.39,0,0-.17-1.03.08-2.58,1.54-.71,2-2.28,2.45-3.19.23-.47-.07-1.12-.36-1.77.18-.26.38-.51.59-.77.52-.63.87-1.26,1.11-1.88.02.02.03.02.04.04,1.15,1.15,1.61-1.15.92-2.08-.2-.26-.43-.48-.68-.69-.33-2.01-1.74-3.71-2.95-4.69-.49-.92-1.3-1.43-2.14-2.46-.92-1.15-3.45-3-3.69-.69-.23,2.31-1.61-.69-1.61.92s-1.39,2.3-1.39,2.3c0,0-.23-3.69-.92-2.77-.69.92-2.77,3.46-1.39,4.38.72.48,1.24.95,1.39,1.33-.07.19-.14.37-.2.57-.13.07-.28.14-.51.17-1.38.23-3.46.23-2.76,2.31.69,2.08,1.15,3.23.92,4.61-.23,1.38-.23,3.46-1.15,4.38-.92.92-3,.92-3.92,2.77-.92,1.84-3.23,3.91-2.53,4.15.69.23,2.53-3,3.69-3.23.1-.02.18,0,.27.01-1.42,1.45-3.12,3.09-4.88,4.76-.06-1.04-1.18-.33-2.53,2.14-.08.15-.18.3-.28.46-2.19,2.01-4.31,3.9-5.95,5.3-.95.81-1.97,1.73-3.04,2.68-.06.03-.13.07-.19.09-3.22,1.38-5.3,1.15-5.3,2.54s-.69,3.23-1.85,3c-1.15-.23,0,.46-2.07,1.15-2.07.69-3.46,1.15-4.38.23-.92-.92-1.84-2.31-2.3-.69-.11.38-.12.71-.11.99-1.23-1.02-1.5-2.38-1.5-2.38,0,0-.4,1.36-1.48,2.85-.58-.46-1.12-.9-1.52-1-.92-.23-3.46-1.15-4.38.23-.92,1.39-3.22,2.31-3.68,3.92-.46,1.62-.46-1.61-1.38-.92-.86.64-2.11.9-2.46,1.86-.13.18-.24.39-.31.67-.07.26-.08.51-.08.75-.3,1.13-.58,2.44.08,2.94.72.54,1.71.94,2.66,1.53.51.62,1.06,1.31,1.65,2.13.2.8.34,1.68,1,2.34,1.15,1.16,1.61,4.38,1.61,5.53s1.84,4.62,2.53,6c.55,1.1.67-.29,1.16-.54.63,3.56-.13,7.12-3.93,10.22-1.63,1.33-3.12,2.12-4.45,2.56-.96-.27-1.85-.6-2.46-.48-.64.13-.71.53-.85.91-2.86-.25-4.46-2.07-4.46-2.07,0,0-.09.06-.24.13-.2-.4-.48-.71-.91-.82-.92-.23-3.23.46-3.23.46,0,0-1.62-1.15-2.31-.69-.17.11-.35.29-.53.49-.8-1.19-1.4-2.55-2.03-3.66-.06-.89-.3-1.99-.9-2.59-.54-.54-1.37-.36-1.92.41-.12.01-.25.02-.38.06-.81.2-1.85.82-2.91,1.65-.7.08-1.3.22-1.47.66-.13.33-.35.79-.63,1.32-1.68,1.84-3.03,4.03-3.05,5.77-.99,1.26-2.22,2.01-1.85,4.21.1.6.21,1.15.31,1.64-.45,1.05-.98,2.09-1.55,3.04-.39-.22-.7-.45-1.07-.08-.6.6-1.03,2.42-1.43,3.34-.14.12-.28.24-.41.35-.07.05-.12.11-.19.16-.91.06-2.89-.85-3.27.3-.46,1.39-.92,1.62-1.62,2.77-.69,1.15-1.84,2.31-1.38,3.46.46,1.15.69-2.07,2.54-2.3.2-.02.33-.03.46-.04-.29.57-.56,1.17-.8,1.79-.8,1.09-3.14,2.06-3.58,4.94-.46,2.99,0,5.3-.69,5.3s-1.15.92.23,2.53c1.39,1.62,8.07,2.77,7.15,3.93-.93,1.15,3.69,1.61,4.84,2.53,1.15.92,1.62,4.15,3.46,3.45.9-.33,1.47-.5,1.9-.43.35.32.65.62.87.9,0,0,.17.43.39,1.07.04,1.58-1,4.04-.62,5.39.46,1.62,1.62,1.16,2.31.23.39-.52.71-1.11,1.16-1.53.37-.17.79-.35,1.23-.53.05,0,.09-.02.15-.02.61,0,1.21-.32,1.76-.69,1.33-.42,2.78-.77,4.2-.87.09.07.19.1.27.17.38.39,1.99.28,3.37.29,1.08.41,1.84.89,2.4,1.38.34.82.9,1.61,1.31,1.56.7,1.08,1.1,1.86,3.06,1.62,3.69-.46.92-2.77,3.69-5.08,1.21-1.01,2.78-2.37,4.08-3.93,1.1-.11,2.18-1.23,2.84-3.21.69-2.08-.92-2.3,1.61-5.77,1.07-1.45,1.32-2.38,1.28-3.05.21-.66.34-1.34.34-2.02,0-.51.05-.91.15-1.24.44-.36.95-.42,1.46.09.83.83,1.11-.57,1.82-1.03.41.12.81.25,1.18.34.17.04.33.09.5.14.56.41,1.21.9,2.04,1.01,1.62.23,3.69-.23,3.69-1.15s.69-.92,1.38-1.61c.3-.3.57-.97.94-1.69,1.4-1.42,3.06-2.69,4.82-2.69.76,0,1.62-.04,2.51-.12.43.65.81.7,1.87.35.45-.15.83-.43,1.16-.75,2.48-.45,4.74-1.2,5.52-2.25.23-.3.64-.84,1.19-1.49.4-.07.91-.47,1.58-1.28.84-1.01,2.53-2.49,4.37-3.23.48-.17.97-.31,1.48-.39.2-.03.41-.06.61-.06,2.54,0,3.46,1.15,5.07,1.61.12.03.22.06.32.09.95.71,1.93,1.66,2.91,2.91.27.34.48.64.72.95.46,1.09.91,2.02,1.93,2.65,4.09,6.05,1.63,5.71,3.99,7.78.09.19.18.39.28.6.38.88,1.03,1,1.73.93.43.3.87.6,1.33.9-.19.3-.29.63-.06.94.69.92,2.31,1.61,4.15,1.84.14.02.27.08.41.12.37.24.74.49,1.09.74.85.9,1.42,2.28,2.19,3.06.92.92.81-.65,1.67.44.16.24.3.48.4.72,1.38,3.22,1.38,8.75,1.38,8.75,0,0,2.77,3.23,6.46,1.39,3.69-1.85,0-3.23,1.84-6.46,1.84-3.22,6.92-5.07,5.07-6.92-1.25-1.25-3.76-2.3-5.69-3.7-.11-.29-.21-.59-.31-.91-.46-1.62-1.61-3.92-2.07-2.54-.06.18-.14.32-.23.43-.66-.91-1.56-1.55-2.57-2.13-.14-1.26-.16-2.84-.65-2.67-.7.23-1.16.92-2.31.69-1.15-.23-3.46-3.69-4.15-5.07-.56-1.12-1.28-2.24-2.14-2.74-.56-.98-1.1-1.94-1.59-2.84-.2-1.19-.43-2.37-1.11-2.48-.1-.02-.19-.06-.27-.12-.21-.4-.38-.74-.52-1.02-.31-1.26-.34-3.02-1.75-2.56-2.07.69-3,0-2.07-1.61.17-.29.39-.55.64-.79.61-.22,1.39-.36,2.36-.36,1.52,0,3.64,1.43,5.76,3.37-.02.64-.05.46.08.08,1,.92,1.99,1.95,2.91,3,.75,2.16,2.14,3.87,3.37,4.35.83,1.23,1.63,2.24,2.43,3.07.09.3.16.61.21.9.23,1.61,1.15,1.38,1.84,1.15.12-.04.2-.13.26-.25,1.16.63,2.41.94,3.89.94,0,0,.78,1.93,3.41.83.6-.09,1.1-.29,1.2-.6,0,0,0-.02,0-.02,1.07-.55,2.1-.9,2.91-1.02.33.76.31,1.64-.38,2.2-1,.8-1.48,2.13-.98,3.52-.29,1.43-.17,2.93.29,4.32.33,1,1.16,2.49,2.17,4.02.74,1.42,1.48,2.64,2.22,3.01.7.85,1.41,1.6,2.06,2.17v.02c0,.79.33.82.82.61.2.13.39.24.56.31,2.31.92,0,8.3,1.84,11.53,1.85,3.22,3.23,7.37,4.15,9.23.7,1.4,3,1.73,4.06,1.81.11.28.19.59.21.9-.11.32-.24.69-.38,1.11-.11.11-.26.23-.43.32-1.43.71-.78,1.43-.1,1.82-.25,1.47-.19,2.86.79,3.26.64.25,1.54.26,2.54.16,1.02.3,2.34.31,3.45.31,1.03,0,.84-.46.33-.93.63-.1,1.23-.17,1.76-.2,1.13,1.13,2.63,2.47,4.13,2.28,1.09-.14,1.84-.6,2.34-1.13,1.04-.22,1.86-.89,2.04-2.33.07-.5.09-.92.08-1.27.09-.2.15-.39.15-.57,0-.92-.69-1.85-1.61-2.54-.63-.47-.51.24-.67,1.05-.73-.18-1.65-.38-2.8-.75-.24-.76-.49-1.46-2.3-1.46-2.3,0-3.46-.23-4.15-.69-.32-.22-.76-.02-1.22.14-.19-.32-.32-.75-.39-1.29-.1-.81-.15-1.38-.14-1.83.76.02,1.28.21,2.45.21,1.85,0,3-1.61,3.92-2.08.92-.46.69-.46,2.08-.69,1.38-.23,2.77-1.84,1.61-1.84s-2.08.69-2.54-.23c-.46-.92,1.39-2.3,1.39-2.3l-.41-1.23c.28-.65.41-1.07.41-1.07,0,0-.61-.45-1.34-1.14l-.73-1.18s-.09.07-.24.18c-.64-.75-1.2-1.61-1.38-2.48-.46-1.38.23-3.91-1.15-3.91s-1.16-2.32-1.84-2.32-1.85-2.3-3-1.38c-.08.06-.16.1-.24.12-.3-.55-.55-1.12-.68-1.73-.21-.94-.17-1.64.03-2.22,1-.51,1.65.77,2.28-.09.58-.77-.29-1.39-.31-2.25.96-.82,2.07-1.82,2.99-3.57.04-.04.07-.08.1-.13.09.46,1.89,9.24,4.14,11.48.32.33.72.67,1.17,1.03.09.42.27.87.67,1.27.8.8,1.36.61,1.83.65.25.19.51.38.77.59.06.1.11.22.17.37.69,1.85-.92,2.77.69,3.69,1.61.92,3.23.69,3.69,1.84.46,1.16,0,1.16.23,2.54.21,1.26.81,3.44,1.77,4.01.81,1.96,2.06,3.64,4.22,4.29,4.61,1.39,7.84-3.23,9.68-3.7,0,0,0-.04.01-.08,1.69.34,2.87.35,3.68-1.07.1-.17.2-.31.3-.44.47,1.17.62,2.52.62,2.52,0,0,.13-.01.35-.04.05,1.5,1.82,1.04,2.42.04.14-.23.36-.38.62-.49.47-.09.97-.18,1.47-.29.84-.01,1.73.09,2.29.09s.73-.43.98-.88c2.69-.63,3.98,0,5.24,2.95,1.13,2.64,1.95,12.63,1.71,17.98-.4,1.4-.89,3.06-1.48,4.66-2.12,2.14-6.88,3.35-14.52,2.26-9.68-1.39-31.35-.92-34.58.47-3.23,1.38-3.69.45-7.38,3.68-.14.13-.25.26-.37.39-1.16.59-2.31,1.2-2.17,2.37.23,1.85-.46,4.16-.23,5.08.13.5.31,1.73.2,2.99-.28.3-.64.54-1.12.7-4.15,1.38-20.29-3.69-27.2-13.38-6.92-9.68-3.69-16.13-4.15-19.36-.47-3.23-7.38-9.68-10.15-9.22-1.92.32-12.29,2.42-20.3,3.52-.87-.5-1.87-.96-2.99-.52-2.3.92-5.76.46-7.61.69-.49.06-1.34.1-2.33.15-6.62-.42-15.85-1.01-16.57-2.45-.92-1.84.46-6.92-1.38-7.38-1.85-.46-9.68.93-12.91,2.3-.69.3-1.83.42-3.21.45-1.37-.04-3.71-.42-5.04-.1-4.41-.19-9.12-.46-10.66.57-1.96,1.31-6.24,5.16-10.37,7.78-1.24.06-2.71-.12-3.93.74-1.61,1.16-3.45,2.31-4.84,2.77-1.39.46-5.53,2.07-6.92,3.69-1.2,1.41-9.62,6.86-13.27,9.29-1.28.72-2.59,1.45-3.9,2.16-1.89.77-4.23,1.67-6.73,3.54-3.14,1.58-5.8,2.8-7.22,3.23-4.61,1.38-15.68,9.22-17.52,17.98-.08.4-.16.83-.25,1.28-1.04,1.77-1.84,7.61-2.06,9.11-.23,1.61,0,7.37-1.61,9.22-1.61,1.84-.69,5.76-1.61,8.29-.92,2.54-4.15,5.54-4.84,7.15-.69,1.62-2.77,4.15-2.3,5.99.46,1.85-2.54,4.15-2.54,5.77s-.69,4.15.23,5.53c.92,1.38,1.38,3.22,2.07,4.84.69,1.61,1.15,3,2.54,4.15,1.38,1.15,1.61,2.77,3.92,3.69.83.33,1.42.36,1.91.35,6.94,6.28,15.02,13.03,21.02,19.03.65,1.69,3.44,4.92,5.2,7.12.9,1.13,1.58,1.49,2.15,1.69.46.78.83,1.53,1.07,2.23.14.4.27.76.4,1.12-.2.79-.36,1.61.06,2.34.77,1.35,1.24,2.55,3.01,3.99,1.25,1.59,2.66,2.21,4.83,2.69,0,0,1.46,1.61,4.18,2.83.66.5,1.42.81,2.26.82,1.47.39,3.16.63,5.09.5,3.51-.22,12.42-.24,22.69.19.04.02.09.03.13.04,3,.92,7.38.92,9.46.92.45,0,.98-.14,1.54-.32,3.01.22,6.02.48,8.93.8,1.74.83,3.75,1.34,5.67.9.18-.05.33-.08.49-.13,1.66.23,3.25.49,4.76.77.02.02.03.03.04.05,2.08,2.3,2.47,2.98,5.08,2.3.38-.1.72-.18,1.03-.24,1.03.97,1.22,2.13,1.63,3.2-.04.28-.03.53.11.73.13.19.33.35.58.5.26.32.59.62,1.04.88,1.42.81,3.93.55,6.56.28,2.42.1,5.31-.16,6.35.88.82.82,1.53-.11,2.37.3.26.25.53.52.8.81.09.15.19.31.29.51.59,1.18,1.13,1.43,1.59,1.54.44.52.84,1.07,1.21,1.62.1.61.43,1.12.86,1.55.95,2.11,1.08,4.41-.67,6.82-3.69,5.07,0,11.07,5.53,12.9,1.28.43,2.79.96,4.34,1.61,2.47,1.19,5.08,2.53,6.59,3.76.1.08.2.17.29.26.31.29.58.57.76.83,1.61,2.54-.93,4.39.46,5.99.64.75,1.41,1.73,1.82,2.82-2.28,7.22-11.78,16.65-10.12,21.62,1.84,5.53,6.46,5.53,8.3,8.29,1.84,2.77,9.22,11.53,12.45,12.91,0,0,6.55.36,19.39-1.82,3.69-.52,8.22-1.47,13.35-2.76,5.77-1.38,12.29-3.17,19.56-5.5,6.01-1.84,12.38-3.88,18.94-6.07,1-.33,2.13-1.04,3.32-1.92,6.68-2.65,13.79-5.67,21.35-9.14,0,0,8.73-10.69,15.68-18.87,6.81-5.52,12.24-13.67,14.29-17.44.54-.97,1.02-2.02,1.43-3.11,1.83-4.27,2.83-9.12,1.8-14.07-.77-3.7-.39-7.5.7-11.02,1.56-2.27,2.85-4.66,3.22-6.86,2.43-3.72,5.57-6.5,8.53-7.49,6.92-2.3,8.3-10.14,8.76-13.83.34-2.7,2.17-4.9,4.03-5.89,1.84-.1,3.69-.1,3.69-1.02,0-.04,0-.08.01-.12,1.22-.88,2.16-2.67,3.79-4.95.55-.78,1.63-2.03,2.99-3.55,2.03-1.3,4.9-3.55,6.23-5.21,1.84-2.3,8.07-8.3,8.3-10.15.1-.82.08-2.25.19-3.76.82-1.84,1.66-3.92,2.43-5.89,1.45-1.87,2.47-4.45,2.21-5.89.44-1.21.71-1.98.71-1.98,0,0-3.23-1.38-4.61-1.38-.32,0-1.52.8-3.21,2.02-.73-.35-1.44-.58-1.86.05-.86,1.29-5.96,5.21-7.56,6.84-4.38,3.11-8.64,5.84-10.42,5.84-2.32,0-3.89.86-4.93,1.87,0-.65-.21-1.45-.97-2.39-.12-.31-.3-.6-.56-.86-.31-.31-.78-.77-1.34-1.33-2.17-2.57-4.43-5.49-5.36-6.05-.32-.2-.76-.25-1.22-.28-1.89-1.76-3.82-3.48-5.46-4.8-1.3-1.03-3.22-2.78-5.33-4.9-.73-1.59-1.55-3.34-2.27-3.63-1.15-.46-2.54-1.85-3-3.23-.46-1.38-4.61-3.45-4.84-6.45-.23-3-.92-5.53-1.84-7.15-.92-1.61.69-1.61-.46-4.15-1.15-2.54-2.08-5.07-2.53-6.46-.46-1.38-2.08-7.37-3.92-8.07-.05-.02-.1-.03-.16-.05-.18-.25-.36-.46-.53-.64-1.07-1.07-2.47-2.41-3.8-3.66.25,0,.57.05,1.03.19,2.31.7,2.54-.45,2.31-2.53-.05-.44-.2-.9-.39-1.37,1.09.82,2.3,1.93,3.54,3.21.15.77.26,1.49.31,2.08.23,2.77,1.62,4.15,3.69,5.53,2.08,1.39,3.92,4.61,4.84,6.23.92,1.61,1.84,2.3,2.54,5.53.69,3.22,1.85,7.61,3.46,8.53,1.61.92,5.53,4.15,6.92,7.38,1.38,3.22,4.38,6.45,5.76,6.91,1.38.46,4.62-1.15,5.77,2.3,1.15,3.46,2.31,6,3,7.38.19.38.4.71.67,1-.01.95.59,3.56,8.32-.31,1.39-.69,2.75-1.41,4.08-2.16,3.02-1.38,6.01-2.97,7.68-4.3,3.46-2.76,8.76-6.23,11.29-11.76,2.54-5.53,6-16.37,8.53-18.67,1.56-1.41,4.16-8.4,5.94-14.49,1.73-4.18,2.37-8.79,2.74-13.49.81-2.87,1.83-5.55,1.23-6.13-.74-.75-3.42-1.64-4.68-.4-.44-.39-.89-.85-1.31-1.45-2.31-3.23-2.31-6.45-3.69-5.54-.18.13-.39.48-.62,1.01-1.03-.32-2.55.45-2.38,2.45.09,1.08.21,2.4.24,3.67-1.38,3.96-3.09,8.09-5.07,8.09-3.51,0-13.27-7.09-16.99-7.77-.28-.15-.7-.17-1.41-.11-1.43-.13-3.11-.58-4.43-1.45-.17-1.59.93-3.59.93-4.27s-1.38-.92-2.08-1.62c-.69-.69,0-2.53.92-4.15.18-.32.19-.64.1-.95.76-1.88,1.34-3.31,1.31-4.18.41.06.68.32.89.76.33.68.79.36,1.47-.22.83.08,1.86,0,3.14-.47,0,0,1.84.46,2.31,3.22.41,2.46,1.91,4.91,6.12,6.4.11.18.23.33.33.51,1.61,2.77,2.3,2.54,3.69,1.16,1.39-1.38,3.23-2.08,4.61-1.61,1.39.46,3-2.53,3.23-3.23.23-.69,1.84-1.15,3-.92,1.15.23,1.61,1.84,3.69,1.84.46,0,1.01-.16,1.59-.43,3,.08,5.14-3.37,6.02-5.56.12-.29.29-.72.51-1.22,1.85-2.77,4.94-5.86,5.94-6.86.81-.81.73-2.65,1.49-3.66.65-.4,1.33-.64,2.01-.69,2.37.13,4.75,1.15,7.33,1.35.17.01.32.05.48.08,1.49.68,2.86,1.71,3.9,3.34.14.51.23,1.05.23,1.65,0,1.29.68,2.4,1.52,3.17.03.18.07.33.1.52,0,0,0,.62.81.15.85.48,1.66.57,1.95.08.69-1.15,2.77-4.38,4.61-4.38s2.77,4.38,5.53,6c.41.24.77.67,1.08,1.19.59,2.09.92,4.7.76,8.03-.46,9.69-.46,22.14,2.31,28.13,0,0,.89-3.12,2.07-8.77,0,0,0,0,0,.01.87,1.73,7.28-24.44,5.42-63.68Z"/><path class="cls-3" d="m323.3,668.39c-2.07-2.08-9.68-4.84-11.06-7.61-1.38-2.77-10.37-19.36-13.14-20.05-2.77-.7-5.53-5.54-6.92-7.61-1.38-2.08-.69-2.08-4.84-2.08s-3.46-5.54-1.38-10.37c2.08-4.85-1.38-9-1.38-9,0,0-1.38-4.84-1.38-8.99s-2.08-6.91-4.15-11.06c-2.08-4.15-8.99-8.3-6.22-11.75,2.76-3.46,4.84-2.77,2.76-7.61-2.07-4.83-6.22-3.46-5.53-9.68.69-6.22-4.15-11.76-4.84-6.22-.69,5.53-4.15,6.91-4.84,2.07-.69-4.84,2.77,93.37,67.09,163.22,0,0,.69-11.06-2.77-14.53-3.46-3.45-6.91-5.53-4.15-8.3,2.76-2.77,7.61,3.46,8.99-.69,1.38-4.15.69-15.21,0-19.37-.69-4.15-4.15-8.3-6.23-10.37Z"/><path class="cls-3" d="m268.67,529.37c9.68-6.22,4.15-13.83,6.23-17.98,2.07-4.15-.69-6.23-2.07-9.68-1.38-3.46-.69-8.3.69-11.76,1.38-3.46,1.38-4.84-2.07-2.07-3.46,2.77-2.77,6.23-2.08,10.37.69,4.15,2.08,8.99,2.08,12.45s-3.46,4.84-.69,6.92c2.77,2.08-5.21,13.77-2.08,11.75Z"/><path class="cls-3" d="m404.91,354.39c2.77-2.77,9-12.45,15.91-12.45s9.68-.69,9.68-4.15-4.15-6.22-6.22-4.84c-2.08,1.38-4.15,3.46-4.84.69-.69-2.77,3.46-8.3,5.53-11.07,2.08-2.77,4.84-6.23,2.08-6.92-2.77-.69-6.23,2.07-8.3,3.46-2.08,1.38-13.14,4.15-15.22,8.3-2.08,4.15-2.08,2.77-6.92,4.15-4.84,1.39-6.92,4.15-11.76,5.53-2.76.79-5.08.68-7.07.95,1.59-1.29,3.11-2.9,3.61-4.41,1.39-4.15-2.07-10.38,2.08-11.07,4.15-.69.69,6.92,4.84,5.53,4.15-1.39,1.39-5.53,6.22-8.99,4.84-3.46,3.46-9.68,6.23-10.37,2.76-.7-2.77,6.22,2.07,4.15,4.84-2.07,10.38-4.15,13.83-6.92,3.46-2.76,3.46-7.61,9.69-6.22,6.23,1.38,6.23.69,8.3,6.22,2.07,5.53,2.07,9.68,4.84,6.92,2.77-2.76,8.99-4.84,11.76-6.92,2.77-2.07-5.53-6.92-1.38-8.99,4.15-2.08,7.61-5.53,11.07-2.08,3.46,3.46,6.92-.69,6.92,4.15s-.69,8.3,2.07,7.61c2.77-.69.69-7.61,4.15-8.3,3.46-.69,8.3-4.15,8.99-6.22.69-2.07-2.07-4.84-4.84-2.77-2.77,2.07-5.53,6.22-5.53,6.22,0,0,0-4.15-2.08-6.92-2.07-2.77,4.84-8.3,8.99-9.68,4.15-1.38,6.92-6.92,11.75-6.92s11.07,2.77,11.07.69,4.84-.69,13.14-4.15c8.3-3.46,5.53,1.38,12.45-.69,6.92-2.08,17.99-3.46,20.75-8.3,0,0-105.82-5.53-186.74,62.94-80.92,68.47-90.6,138.33-90.6,138.33,0,0,11.76-10.37,11.76-15.91s3.46-14.53,7.61-17.29c4.15-2.77,2.77-7.61,8.3-5.53,5.53,2.07,11.06-.69,12.45-4.84,1.38-4.15,4.15-6.23,7.61-8.3,3.46-2.08,2.77-9,6.23-9.69,3.46-.69,4.84,2.08,6.23,4.84,1.39,2.77,4.84,6.22,8.99,4.15,4.15-2.08,5.53-5.53,9.68-7.61,4.15-2.07,11.06,1.39,11.75,3.46.7,2.07-4.15,9.69,3.46,9.69s9.68-1.39,9.68-5.53-4.84-7.61-4.84-10.38,1.39-3.46,3.46-3.46,2.77,2.07,5.53.69c2.77-1.39,5.53-4.84,6.22-7.61.69-2.76-1.38-4.84-3.46-3.46-2.08,1.38-6.22,6.23-6.92,3.46-.69-2.76,2.08-4.84,4.15-7.61,2.07-2.76,9.68-6.92,7.61-4.15-2.08,2.77-.69,4.84,2.08,4.84s4.15-4.15,5.53-8.3c1.38-4.15,8.3-9.69,8.99-11.76.69-2.08-1.38-3.46,1.38-6.23Z"/><path class="cls-3" d="m538.4,305.29c0-2.77-2.07-6.92-3.46-4.15-1.38,2.77-5.53,5.53-6.22,3.46-.69-2.08-6.23-2.77-6.92-4.84l-.69-2.08s-1.38-2.08-6.23-2.77c-4.84-.69-6.92,0-12.45,1.39-5.54,1.38-10.38,0-8.99,6.92,1.38,6.91,6.92,6.22,6.92,6.22,0,0-3.46,4.84-6.92,5.53-3.46.69-8.3,5.53-12.45,7.61-4.15,2.08-6.92,2.08-12.45,4.15-5.53,2.07-18.68,15.22-20.75,17.29-1.76,1.76-2.08,4.84-2.08,10.37s-4.15,11.76-4.15,15.91,2.08,3.46,5.53.69c3.46-2.77,3.46-5.54,6.23-5.54s3.46-4.15,6.22-5.53c2.77-1.38,2.77,4.15,5.53,1.38,2.77-2.77,0-4.15,2.77-4.84,2.77-.69,4.15,0,6.23-.69,2.07-.69,2.76-2.07,6.92-4.84,4.15-2.77,6.23-6.92,9.68-6.92s11.07.69,4.84,3.46c-6.22,2.76-8.3,8.3-6.22,8.3s3.46-2.07,6.92-3.46c3.46-1.38,4.15,1.38,9.68-2.08,5.53-3.46,5.53,0,5.53,0,0,0,3.46,0,8.3-3.46,4.84-3.46,13.14-6.92,15.21-6.92s8.3-5.53,9.69-8.99c1.38-3.46,2.07-13.14,4.84-14.52,2.76-1.38,8.3-6.22,8.3-6.22,0,0-2.07-6.23-6.22-5.53-4.15.69-13.14,3.46-13.14.69Z"/><path class="cls-3" d="m455.41,314.97c2.07-2.08,5.8-3.31,7.61-6.92,2.77-5.53,3.46-5.53,1.39-8.3-2.08-2.77-5.53,2.76-7.61,6.22-2.07,3.46-8.3,3.46-12.45,6.23-4.15,2.77,1.38,6.92,4.84,6.92s4.15-2.08,6.23-4.15Z"/><path class="cls-3" d="m507.97,284.54s-2.07-2.77-4.15-2.77c-4.84,0-10.37,2.77-11.06,6.23-.7,3.46,0,4.84,3.46,4.84s11.76-4.84,15.91-2.77c4.15,2.07,9.68,6.92,10.37,4.15.69-2.77,1.39-5.53,1.39-8.3s-1.39-4.85-5.53-2.77c-4.15,2.07-10.37,1.38-10.37,1.38Z"/><path class="cls-3" d="m727.91,734.79c-.69,2.08-5.53,7.61-10.37,7.61s-4.84,3.45-8.99,8.99c-4.15,5.53,4.15,4.15,2.08,6.23-2.08,2.07-5.53,1.38-8.99,3.46-3.46,2.07-3.46,6.23-3.46,6.23l-2.76,2.77s-6.23,4.84-.7,2.07c5.53-2.76,31.13-22.12,32.51-24.2,1.38-2.08,3.46-5.53,6.22-10.37,2.76-4.85-2.77-11.77-2.77-11.77-3.46,1.38-2.08,6.92-2.77,8.99Z"/></g><g id="Note"><ellipse class="cls-3" cx="956.47" cy="919.13" rx="52.44" ry="42.37" transform="translate(-182.24 238.72) rotate(-13)"/><ellipse class="cls-3" cx="791.29" cy="956.31" rx="52.44" ry="42.37" transform="translate(-194.84 202.51) rotate(-13)"/><rect class="cls-3" x="828.26" y="784.96" width="15.01" height="167.87"/><rect class="cls-3" x="993.44" y="747.77" width="15.01" height="167.87"/><path class="cls-2" d="m1001.49,780.32l-162.84,34.02c-5.09,1.06-9.87-2.82-9.87-8.02v-60.59c0-3.88,2.72-7.23,6.52-8.02l162.84-34.02c5.09-1.06,9.87,2.82,9.87,8.02v60.59c0,3.88-2.72,7.23-6.52,8.02Z"/></g><path id="Frame" class="cls-1" d="m672.02,956.42H176.11c-29.01,0-52.53-23.52-52.53-52.53V176.11c0-29.01,23.52-52.53,52.53-52.53h727.79c29.01,0,52.53,23.52,52.53,52.53v461.39"/></svg>