<svg xmlns="http://www.w3.org/2000/svg" viewBox="0 0 1080 1080"><defs><style>.a{fill:#eaeaea;}</style></defs><path class="a" d="M577.53,559.69c7.85-2.62,3.66-4.45,1.57-5.24,0,0-7.07-3.41-8.91-2.62s-4.71,3.66-4.45,5.76S569.67,562.31,577.53,559.69Z"/><path class="a" d="M513,460.62a1.91,1.91,0,0,0,2.67,1.33c1.49-.5,1.83-1.66,2.49-2.33s1.33.67,2.49.5,1.5-1.33,2.33-1.66.83,1,1,2,.83,1,2.83-.67,6.65-2.33,9-2.49,4.49-2.16,3.66-3.49-.33-4.16-.83-5.82-2.49-.83-3.66-.83-.66,1.33-1.49,2-.5.17,0-1.16a1.31,1.31,0,0,0-.82-1.68c.45.15.9.05,2.64-.49,2.17-.66,2.33-2.16,3-3.82s-1.67-4.49-2.5-5.49a1.87,1.87,0,0,0-1.66-.83c.5-1.33-1.66-4.15-2.49-5.48s-3.33-1.17-5.16-1.83-.66-2.33-.83-3.66a9,9,0,0,0-1.66-3.82c-.67-.83,0-2.5-.83-2.83s-1.5,1.16-2,.33,1-1.5.34-1.83-.67.33-.84-.49,0-.68,1.6-.93,3.41-2.62,4.71-4.2,0-4.71-2.35-4.71-4.19,2.36-7.07,2.1-2.1-2.89-1.57-4.19.47-2.73-.53-3.15-2.6,1.77-3.93,2.61-2,1.82-3.16,2.49.34,1.5-.17,2-1.49-.66-2.16.67,2,1.16.83,2.16-.33,1.5.34,2.83-.34,1.83.49,4,1.84,1.49,2,3.49-.16,2.82-1.33,1.83-.83-4-1.66-4-.34,1.49-2,2.16-.49,2-.33,3.32,1.33.5,1.83,1.33,1.66,1.67,2.66,1.17a1.51,1.51,0,0,0,.81-1.12A5.11,5.11,0,0,0,511,429.7c1.66,1.49,2.83,3.32,2.33,7s-2.5,2-2.66,4.16,2.49,4.32.83,6.48a19.79,19.79,0,0,0-3.16,8c0,1.33,1.33-.33,3-.5s2.83.34,3.83-.5-.84-2.16.66-1.49.5,1.82-.66,3.16-2.33.33-3.49.33-1.34,1.33-1.83,2.49-1.16-.83-2.17-1.33a2.66,2.66,0,0,0-3.15,1.33c-.67,1.17-.5,2.66-1.67,3.33s-2.49,2.49-.49,2.16,4-2,5.81-1.66,2.66.83,4,.49,0-1.49-.49-3S513,459.79,513,460.62Z"/><path class="a" d="M490.25,453c-1.33.5-1.83.5-2,1.5s0,1.83.5,2.16-.16,2,1.66,1.33,1.34-2.16,3.33-2.82,2.33.16,4.16-.84,1.66-2.49,3-3.49,3.33.5,4.49-2.16-.67-3-.67-4.15,1.5-1.83.83-2.5-1.16,1.33-2.16.83.84-.83,1.67-2.66-1.5-4.15-.17-7,1.33-3.33-.33-5,1.49-1.33-.5-3-3.49-4.66-5.16-3.49-1.66-1-3.82-.83a1.72,1.72,0,0,0-1.5,2.32c.5,1.33-.83,1.5-1.66,3.16s-2,1.83-.83,3.66,1.83,2.83,1,4.16-2.33,1.49-3.49,2.66-5.82,3-5.66,5-1.33,5-.66,6.15.83,2,3,.16,4.66-4.65,6-4.15.33,1.82-.67,2-4.49,2.5-4.49,2.5.5,1.66-.5,1.66-2,0-2.49.83-.67,3.32.17,4.32-.17,1.5.66,2.83,2.16,2.49,3,.66.17-2.82.17-3.82.33-2.16,1.5-2.33,1-2.33,2.33-2S491.58,452.48,490.25,453Z"/><path class="a" d="M497.9,370c-.5-1.66-1.17,1-2.5,3s1.33,4.32,2.33,6.65,2.49,6.15,3.82,6.65,4-.34,4.16-1.84,2.33-1.16,3.83-1.82,1.16-1.33,2.82-3.16,3-1.5,1.33.33-.83,3.66-.83,3,.66-1.66,5.32-3.32,2.83-4.49,2-6.48-2-2.5-3.66-3.16-2-1.67-2.33-3.33-2.16-.67-2.83-.17-.83,2.5-1.82,2.33-.34-3.49-.34-3.49c-.49-1.83-7.15,2.83-8.64,5s-1.17,2.66-2.33,2.66S498.4,371.67,497.9,370Z"/><path class="a" d="M809,530.85c-.72-27.54-5.71-60.5-20.38-93.64a265.31,265.31,0,0,0-35.15-61.49C676,274.46,555.31,270.65,555.31,270.65l.39.63-1.94-.19a14.06,14.06,0,0,1,2.67,1.26,16.15,16.15,0,0,0,2.87,3.17,6.06,6.06,0,0,0,2.84,1,24.55,24.55,0,0,0,4.92.54c2.66,0,8,7.32,11.31,6A26.8,26.8,0,0,1,583,281.5a11.75,11.75,0,0,1,2.74,1c.56,1.91-1.37,2.61-2.68,5.88s2,5.32,6,4.66c3.09-.52,2.59-3.44,3.46-4.72a6.63,6.63,0,0,0,3.63,1.39c.85.08,1.62.11,2.34.14a12.73,12.73,0,0,0,6.22,1.92c.09.16.18.33.27.52-1.49,1.29-4.71,4.36-2.62,5.4a10.14,10.14,0,0,0,3.59.68,2.37,2.37,0,0,0,1.73,1.54c2.49.71,4.12-.58,5.82.27l.16.17a4.92,4.92,0,0,0,1.68,1.47c2.15,2.06,4.75,2.22,4.75,3.85s-3.55,1.33-6.65.89-7.54-4.87-10.26-1.41A2.4,2.4,0,0,0,601,307a13.17,13.17,0,0,0-.25,1.92c-1.56,2.62-2.09,4.57,1.13,6.5a17.94,17.94,0,0,0,1.74.9,10.69,10.69,0,0,0,4,2c7.31,2,8,5.32,10,7.31,1,1,1.54-.62,2.62-2.44.81.37,1.58.75,2.22,1.12a4.52,4.52,0,0,0-.18,3.32c.34.85.59,1.74.88,2.63a2.51,2.51,0,0,0,.89,2.91c.18.12.4.23.6.34a9.05,9.05,0,0,0,4.94,3.42c6,2,1.33,7.32,6.65,7.32H637a2.93,2.93,0,0,0,1.51,0c4.67.12,9.34.45,11-.69.85-.57,1.58-1.38,2.3-1.91.71-.13,1.41-.25,2.07-.34a3.35,3.35,0,0,1,1,.92,14.75,14.75,0,0,0,3,2.83,5.83,5.83,0,0,1-.38,1.06,6.4,6.4,0,0,0-2.65.1c-1.06.35-2.31.71-3.65,1.17-2.17-.9-3.33-1.73-5-.06-2.22,2.21-5.76,0-8,2.65s-4.43,1.78-4.43,5.32a6.79,6.79,0,0,1-.09,1.07l-1.47.49c-2,.66-9.31-.67-10.64,2.66a24.21,24.21,0,0,0-1.1,4.62c-1.15,1-2.08,1.61-.9,3.58a2.06,2.06,0,0,1,.32,1l-.06.7c-.36,1.35-1.91,2.49-1.58,4.1.17.89.42,2.06.69,3.23-.8,2.6-2.26,5.64-4,6.08a2.86,2.86,0,0,1-1.48-.11c-.65-.66-.94-1.66-1.85-1.66a6.77,6.77,0,0,0-1.22.15c-1.07-.67-2.2-1.42-3.28-2.08a10,10,0,0,0-1.26-1.17,5.3,5.3,0,0,1-.8,0,6,6,0,0,0-1.41-.48l-.41-.11a1.62,1.62,0,0,1-.48-.78c-.18-.75-.76-.55-1.43-.25-1.64-1.41-1.92-3.52,1-3.52.74,0,1.65,0,2.63-.15a18.82,18.82,0,0,0,3.13-.07s.33-.22.82-.61c3.19-.79,6.05-2.2,6.05-4.49a4.86,4.86,0,0,0-.62-2.45,6.73,6.73,0,0,0,.4-.88s-.38.07-.91.14a10.79,10.79,0,0,0-3.77-2.62c.07-1,0-1.95-1.08-1.95-1.78,0-5.77-1.78-5.77-1.78a16.7,16.7,0,0,0-4.47.11,23.19,23.19,0,0,0-7.05-.55l-.73.12a1.11,1.11,0,0,0-.46.08c-.8.13-1.79.3-2.89.52a3.34,3.34,0,0,0-2.35-.05c-2,.88-4.88,0-5.1,1.55a2.23,2.23,0,0,1-.17.61c-.59.22-1.16.46-1.73.72h-.32a3.53,3.53,0,0,0-1.51,1c-2.62,1.5-4.7,3.48-5.36,6.14a60.51,60.51,0,0,0-1.31,7.72,3.43,3.43,0,0,0-.69,2.48c.23,1.11-1.1,2.44-1.77,1.55s-2-1.11-2.22.44-2.43,2.89-1.55,4,2,0,2.22,1.34a6.06,6.06,0,0,1-.91,3.05l-.77,1c-.43.41-.86.53-1.2.12-1.11-1.33-1.33.89-3.33,2.88s-3.32,4.21-3.1,5.76a13,13,0,0,1,.09,2.24,23,23,0,0,0-1.3,2.91c-1.22.46-1.23,1.54-1.23,2.83s-1.33,3.11-.89,4.44c.3.89.8.69,1.09.8,0,.42,0,.86,0,1.34-.29.58-.77,1-.45,1.62a4.31,4.31,0,0,0,.76.93,14.92,14.92,0,0,0,.76,2.59c-.07,1.43.53,1.9,1.14,2.91a3.1,3.1,0,0,0,2.44,1.78.25.25,0,0,0,.13-.05,8.25,8.25,0,0,0,.76.49q1.43.78,2.7,1.38a.85.85,0,0,0,.71.34l2.1.95c.07.17.16.38.25.66.44,1.32,1.33,2.43,2,2.43s1.33,3.55,3.11,2a5.29,5.29,0,0,1,.74-.56,6.79,6.79,0,0,1,.27,1,6.34,6.34,0,0,1-.35.68c-.89,1.55-.67,2,.23,3.1s.22,2.44,1.1,2.44a1.58,1.58,0,0,0,1.08-.7c1.66,2.2,4.33,3.11,8,.25,6-4.65,8.65-12,8.65-16,0-1.44-1.23-3.67-2.72-6.05.52-.58.86-1.22.27-1.92-1.1-1.34-.88-2-1.77-3.33s-2.21-.67-2.44-2a3.27,3.27,0,0,0-1.1-2,3,3,0,0,1,1.55-3.1,8.8,8.8,0,0,0,3.31-4.62,28.9,28.9,0,0,0,2.59-3.92,1.59,1.59,0,0,0,.32-.65,13.12,13.12,0,0,0,1.32-4.34,3.5,3.5,0,0,1,2.62,2.78c-.65,1.85-1.49,3.37-1.29,4.54a8.63,8.63,0,0,0,.55,1.65c-.21.62-.4,1.22-.59,1.79-.68.19-.82.44-.63,1a2.78,2.78,0,0,1,.11.63c-1.76,5.56-2.2,8.69.56,10.9.88.7,2,1.5,3.14,2.29a3.33,3.33,0,0,0,.62.59c.67.45-.88,2.44,0,2.44.64,0,1.27-.68,1.74-1.47.92.6,1.78,1.14,2.51,1.59a1.26,1.26,0,0,0-.7.55c-.44.88.45,1.1,1.55.66a5,5,0,0,0,.64-.29l.47.29s2-4.66,4.66-5.32l.07,0a4.91,4.91,0,0,0,3.25-.64c1.55-1.11,2.44.22,3.77-1.56a8,8,0,0,1,.55-.67l.4,0c0,.26-.06.7-.06,1.15,0,.78,1,0,1.81-.18a2.52,2.52,0,0,1,.18.62,6.33,6.33,0,0,1,.08,1,2.33,2.33,0,0,0-.08.31c-.22,1.55-.89,2.66-2.22,2.66s-4.21-.22-4.43.89-.67,2.21-1.55,1.77-1.55.44-3.1,1.33-1.36,1.65-1.16,2.82a3,3,0,0,0-.17.5,7,7,0,0,1-.47,1.21,5.25,5.25,0,0,0-1.31,1.23c-.66,1.11-2,.67-2.43,2.22a9.72,9.72,0,0,0-.09,2.75l-.83,1.14c-.9-.5-1.14-2.47-1.75-1.45s-1.55,2.66-.88,3.77a1.58,1.58,0,0,1,.21.67c-.4.46-.79.88-1.16,1.27-.63-.5-1.06-1.9-1.49-.61s-.45,2.44-2.44,3.32-3.32,1.78-4.88,1.78-3.1.22-3.54,1.77a1.74,1.74,0,0,0,0,.9c-.32.43-.63.91-1,1.42a1.41,1.41,0,0,0-.65,1,8.68,8.68,0,0,1-1.31,1.53l-.16.05a6.63,6.63,0,0,1-2.45-.23,6.59,6.59,0,0,1,.23-2.29c1.27-1.19,1-2.42.45-2.8s-2.44-.89-2.88,0a10.35,10.35,0,0,1-.72,1.33h-1.71c-.89-.94-1-1.25-2.45-.22a17.6,17.6,0,0,1-1.57.94,10.38,10.38,0,0,0-4.64,3.27,8.58,8.58,0,0,1,.08-2.48c1.49-.69,1.93-2.2,2.36-3.07.23-.45-.06-1.07-.34-1.7.17-.24.36-.49.56-.73a6.05,6.05,0,0,0,1.07-1.81l0,0c1.11,1.1,1.55-1.11.89-2a3.75,3.75,0,0,0-.66-.66,7.73,7.73,0,0,0-2.83-4.51,18.37,18.37,0,0,0-2.05-2.37c-.89-1.11-3.33-2.88-3.55-.67s-1.55-.66-1.55.89a2.58,2.58,0,0,1-1.33,2.22s-.22-3.55-.89-2.66-2.66,3.32-1.33,4.21a3.74,3.74,0,0,1,1.34,1.28c-.07.18-.13.36-.19.55a1.22,1.22,0,0,1-.48.16c-1.33.23-3.33.23-2.66,2.22s1.11,3.11.88,4.44-.22,3.32-1.1,4.21-2.89.88-3.77,2.66-3.11,3.76-2.44,4,2.44-2.88,3.55-3.11a.52.52,0,0,1,.25,0c-1.37,1.39-3,3-4.69,4.58-.06-1-1.14-.32-2.43,2.05-.08.15-.18.3-.27.45-2.11,1.93-4.15,3.75-5.72,5.1-.91.77-1.9,1.66-2.92,2.57l-.19.09c-3.1,1.33-5.09,1.11-5.09,2.44s-.67,3.1-1.78,2.88,0,.44-2,1.1-3.33,1.11-4.22.23-1.77-2.22-2.21-.67a2.88,2.88,0,0,0-.11,1,4.4,4.4,0,0,1-1.44-2.29,9.76,9.76,0,0,1-1.43,2.74,5.34,5.34,0,0,0-1.46-1c-.88-.22-3.32-1.1-4.21.23s-3.1,2.21-3.54,3.76-.45-1.55-1.33-.88-2,.86-2.37,1.79a1.78,1.78,0,0,0-.29.65,2.61,2.61,0,0,0-.08.72c-.28,1.09-.55,2.35.08,2.82s1.64.91,2.56,1.47c.48.6,1,1.26,1.58,2.05a4.38,4.38,0,0,0,1,2.25c1.1,1.11,1.55,4.21,1.55,5.32s1.77,4.43,2.44,5.76c.52,1.06.64-.28,1.11-.52a9.69,9.69,0,0,1-3.77,9.83,13.61,13.61,0,0,1-4.29,2.46,6.18,6.18,0,0,0-2.36-.46c-.62.12-.69.51-.82.87a6.81,6.81,0,0,1-4.28-2l-.24.12a1.36,1.36,0,0,0-.87-.79,9.14,9.14,0,0,0-3.1.45s-1.56-1.11-2.22-.67a3.08,3.08,0,0,0-.51.47c-.77-1.14-1.35-2.45-1.95-3.52a4.11,4.11,0,0,0-.87-2.49c-.52-.52-1.31-.35-1.85.39a2.39,2.39,0,0,0-.36,0,8.43,8.43,0,0,0-2.8,1.59c-.67.08-1.25.21-1.42.63s-.34.76-.6,1.27c-1.62,1.77-2.91,3.88-2.94,5.55-.95,1.2-2.13,1.93-1.78,4,.1.59.21,1.11.3,1.58a25.09,25.09,0,0,1-1.48,2.93c-.37-.21-.67-.44-1-.07-.57.58-1,2.32-1.37,3.21-.13.12-.27.23-.4.33s-.11.11-.18.16c-.88,0-2.77-.82-3.14.28a10.19,10.19,0,0,1-1.56,2.67c-.66,1.1-1.77,2.22-1.32,3.32s.66-2,2.44-2.22l.44,0a16.88,16.88,0,0,0-.77,1.72c-.77,1-3,2-3.44,4.75s0,5.09-.67,5.09-1.11.89.22,2.44,7.76,2.66,6.88,3.77,3.54,1.55,4.65,2.44,1.56,4,3.32,3.32a4.25,4.25,0,0,1,1.83-.42,11,11,0,0,1,.84.86s.16.41.37,1c0,1.52-1,3.89-.6,5.18.45,1.56,1.56,1.11,2.22.23a11.36,11.36,0,0,1,1.12-1.47c.35-.17.76-.34,1.18-.51l.14,0a3.14,3.14,0,0,0,1.69-.66,17.7,17.7,0,0,1,4-.84c.08.07.18.1.26.17.36.37,1.91.26,3.24.28a7.4,7.4,0,0,1,2.31,1.32c.32.78.86,1.55,1.26,1.5.67,1,1.06,1.79,2.94,1.56,3.55-.45.89-2.67,3.55-4.89a29.6,29.6,0,0,0,3.92-3.78c1.05-.1,2.09-1.18,2.73-3.08s-.89-2.22,1.55-5.55a4.78,4.78,0,0,0,1.23-2.93,6.46,6.46,0,0,0,.32-1.94,4.44,4.44,0,0,1,.14-1.2,1,1,0,0,1,1.41.09c.8.79,1.06-.55,1.75-1l1.13.32.48.14a4.42,4.42,0,0,0,2,1c1.55.22,3.55-.22,3.55-1.11s.66-.88,1.33-1.55a8.26,8.26,0,0,0,.9-1.63c1.35-1.36,3-2.58,4.64-2.58.73,0,1.56,0,2.42-.12.41.63.78.68,1.79.34a3,3,0,0,0,1.12-.72c2.39-.44,4.56-1.16,5.31-2.16.22-.29.61-.81,1.14-1.43a3.23,3.23,0,0,0,1.52-1.23,11.75,11.75,0,0,1,4.2-3.11,9.57,9.57,0,0,1,1.42-.38c.2,0,.39-.06.58-.06,2.45,0,3.33,1.11,4.88,1.55l.31.09a14.48,14.48,0,0,1,2.8,2.8c.26.32.46.61.69.91a4.9,4.9,0,0,0,1.85,2.55c3.94,5.82,1.57,5.49,3.84,7.48l.27.58a1.43,1.43,0,0,0,1.66.9l1.28.87a.72.72,0,0,0-.06.89,6.09,6.09,0,0,0,4,1.78,1.74,1.74,0,0,1,.39.11l1,.71c.81.87,1.36,2.2,2.11,2.94s.78-.62,1.61.43a4.73,4.73,0,0,1,.38.69c1.33,3.1,1.33,8.41,1.33,8.41s2.66,3.11,6.21,1.34,0-3.1,1.77-6.21,6.66-4.87,4.88-6.65c-1.2-1.2-3.61-2.21-5.47-3.56q-.16-.42-.3-.87c-.44-1.56-1.55-3.77-2-2.44a1.14,1.14,0,0,1-.22.41,7.6,7.6,0,0,0-2.47-2c-.14-1.21-.16-2.73-.63-2.57-.67.22-1.11.89-2.22.66s-3.33-3.55-4-4.88a6.3,6.3,0,0,0-2.06-2.63c-.54-.94-1.06-1.87-1.53-2.74-.19-1.14-.41-2.27-1.06-2.38a.57.57,0,0,1-.26-.12c-.21-.38-.37-.71-.51-1-.29-1.21-.32-2.91-1.68-2.46-2,.66-2.88,0-2-1.55a3.7,3.7,0,0,1,.61-.76,6.52,6.52,0,0,1,2.27-.35c1.46,0,3.5,1.37,5.54,3.24,0,.61-.06.44.08.07,1,.89,1.91,1.87,2.8,2.88.72,2.08,2,3.73,3.23,4.18a21,21,0,0,0,2.34,2.95,5.46,5.46,0,0,1,.2.87c.22,1.55,1.11,1.33,1.77,1.1a.43.43,0,0,0,.25-.23,7.64,7.64,0,0,0,3.74.9s.75,1.86,3.28.79c.58-.08,1.06-.28,1.15-.57v0a9.32,9.32,0,0,1,2.8-1,1.7,1.7,0,0,1-.37,2.11,3,3,0,0,0-.94,3.39,8.24,8.24,0,0,0,.28,4.15,18.77,18.77,0,0,0,2.09,3.86,7.21,7.21,0,0,0,2.14,2.9,18.3,18.3,0,0,0,2,2.08v0c0,.76.31.79.78.59a2.52,2.52,0,0,0,.55.3c2.21.89,0,8,1.77,11.09s3.11,7.09,4,8.87c.67,1.34,2.88,1.67,3.9,1.74a2.57,2.57,0,0,1,.2.86c-.1.31-.23.67-.36,1.08a1.45,1.45,0,0,1-.41.3c-1.38.69-.75,1.38-.1,1.75-.24,1.41-.18,2.75.76,3.13a5.59,5.59,0,0,0,2.45.15,12.49,12.49,0,0,0,3.31.3c1,0,.81-.45.32-.9a14,14,0,0,1,1.7-.19c1.08,1.08,2.52,2.37,4,2.19a3.62,3.62,0,0,0,2.25-1.08,2.38,2.38,0,0,0,2-2.25,8.24,8.24,0,0,0,.08-1.22,1.49,1.49,0,0,0,.14-.55,3.37,3.37,0,0,0-1.55-2.44c-.61-.45-.49.23-.64,1-.7-.17-1.59-.36-2.69-.72-.24-.72-.48-1.4-2.21-1.4-2.22,0-3.33-.22-4-.66-.31-.21-.73,0-1.18.14a3.43,3.43,0,0,1-.38-1.24,13.61,13.61,0,0,1-.13-1.76c.73,0,1.23.2,2.35.2,1.78,0,2.88-1.55,3.77-2a4.26,4.26,0,0,1,2-.66c1.33-.22,2.66-1.77,1.55-1.77s-2,.66-2.44-.23,1.33-2.21,1.33-2.21l-.39-1.18c.26-.62.39-1,.39-1a14.87,14.87,0,0,1-1.29-1.09l-.7-1.13-.23.17a5.63,5.63,0,0,1-1.33-2.38c-.44-1.33.22-3.77-1.1-3.77s-1.12-2.22-1.78-2.22-1.77-2.22-2.88-1.33a.64.64,0,0,1-.23.12,6.32,6.32,0,0,1-.66-1.67,3.89,3.89,0,0,1,0-2.14c1-.49,1.58.74,2.19-.08s-.28-1.33-.31-2.16A10.76,10.76,0,0,0,620,534.6l.1-.12c.09.45,1.82,8.89,4,11a14.74,14.74,0,0,0,1.12,1,2.4,2.4,0,0,0,.65,1.22,2,2,0,0,0,1.76.62c.25.19.5.37.74.57a2,2,0,0,1,.16.36c.67,1.78-.88,2.66.67,3.55s3.1.66,3.54,1.77,0,1.11.22,2.44.78,3.31,1.71,3.86a6.52,6.52,0,0,0,4.06,4.13c4.44,1.33,7.54-3.11,9.31-3.56a.38.38,0,0,0,0-.08c1.63.34,2.76.35,3.54-1a4,4,0,0,1,.28-.43,10.23,10.23,0,0,1,.6,2.42l.34,0c0,1.44,1.75,1,2.32,0a1.33,1.33,0,0,1,.6-.47c.46-.09.93-.17,1.42-.28.8,0,1.66.09,2.2.09s.71-.42.94-.85c2.59-.6,3.83,0,5,2.84,1.09,2.54,1.88,12.15,1.65,17.29-.38,1.35-.85,2.94-1.43,4.48-2,2.06-6.62,3.22-14,2.17-9.31-1.33-30.15-.88-33.25.45s-3.55.44-7.1,3.54a4.14,4.14,0,0,0-.35.38c-1.11.57-2.23,1.16-2.09,2.28.23,1.78-.44,4-.22,4.88a10.37,10.37,0,0,1,.2,2.88,2.76,2.76,0,0,1-1.08.67c-4,1.33-19.51-3.55-26.16-12.86s-3.55-15.52-4-18.62-7.1-9.31-9.76-8.87c-1.84.31-11.81,2.33-19.52,3.38a3.22,3.22,0,0,0-2.87-.49c-2.21.88-5.54.44-7.31.66-.47.05-1.29.1-2.25.14-6.36-.4-15.23-1-15.93-2.36-.89-1.77.44-6.65-1.33-7.09s-9.31.89-12.41,2.21a9.35,9.35,0,0,1-3.09.44c-1.31,0-3.56-.4-4.84-.1-4.24-.18-8.76-.44-10.25.55-1.88,1.26-6,5-10,7.49-1.19,0-2.61-.12-3.78.71a20.31,20.31,0,0,1-4.65,2.67c-1.33.44-5.32,2-6.65,3.54-1.16,1.35-9.25,6.59-12.76,8.93-1.23.7-2.49,1.4-3.76,2.08a26.27,26.27,0,0,0-6.46,3.4,55.15,55.15,0,0,1-6.94,3.1c-4.44,1.33-15.08,8.87-16.85,17.29q-.12.58-.24,1.23c-1,1.7-1.77,7.31-2,8.75s0,7.09-1.55,8.87-.66,5.54-1.55,8-4,5.33-4.65,6.88-2.67,4-2.22,5.76-2.44,4-2.44,5.54-.67,4,.22,5.32a29.69,29.69,0,0,1,2,4.66c.67,1.55,1.11,2.88,2.45,4s1.55,2.66,3.76,3.55a4.52,4.52,0,0,0,1.84.34c6.67,6,14.44,12.53,20.21,18.3.63,1.63,3.3,4.73,5,6.85a4.46,4.46,0,0,0,2.07,1.62,12.92,12.92,0,0,1,1,2.14c.13.38.26.73.38,1.08a3,3,0,0,0,.06,2.25,10.89,10.89,0,0,0,2.89,3.84,7.19,7.19,0,0,0,4.65,2.59,13.15,13.15,0,0,0,4,2.73,3.64,3.64,0,0,0,2.17.78,15.21,15.21,0,0,0,4.89.48c3.38-.21,11.95-.23,21.82.18l.13,0c2.88.89,7.09.89,9.09.89a5.09,5.09,0,0,0,1.49-.31c2.89.21,5.78.47,8.58.78a8.46,8.46,0,0,0,5.45.86l.47-.12c1.59.22,3.12.47,4.58.74l0,0c2,2.21,2.37,2.86,4.88,2.21.37-.1.7-.17,1-.23a7,7,0,0,1,1.57,3.08,1,1,0,0,0,.1.7,1.73,1.73,0,0,0,.55.48,3.56,3.56,0,0,0,1,.85c1.37.78,3.78.53,6.31.26,2.33.1,5.11-.15,6.11.85.78.78,1.47-.11,2.27.28.26.24.51.5.77.78a4.27,4.27,0,0,1,.28.49c.57,1.13,1.09,1.38,1.53,1.48a17,17,0,0,1,1.16,1.56,2.7,2.7,0,0,0,.84,1.49,6.12,6.12,0,0,1-.65,6.56c-3.54,4.87,0,10.63,5.33,12.4,1.23.42,2.68.93,4.17,1.55A35.69,35.69,0,0,1,554.3,756l.29.24a4.58,4.58,0,0,1,.72.8c1.55,2.44-.89,4.22.45,5.76a10,10,0,0,1,1.75,2.72c-2.2,6.94-11.33,16-9.74,20.79,1.78,5.32,6.21,5.32,8,8s8.86,11.08,12,12.42c0,0,6.3.34,18.65-1.75a130.53,130.53,0,0,0,12.84-2.65c5.55-1.33,11.82-3,18.81-5.29,5.78-1.76,11.9-3.73,18.2-5.83a12.33,12.33,0,0,0,3.2-1.85c6.42-2.54,13.26-5.45,20.52-8.79,0,0,8.4-10.28,15.08-18.15a62.72,62.72,0,0,0,13.74-16.77,28.27,28.27,0,0,0,3.11-16.51,21.26,21.26,0,0,1,.66-10.6,17.55,17.55,0,0,0,3.1-6.59c2.34-3.57,5.35-6.24,8.2-7.2,6.65-2.21,8-9.75,8.43-13.3a7.67,7.67,0,0,1,3.88-5.66c1.77-.1,3.54-.1,3.54-1a.43.43,0,0,1,0-.11c1.17-.85,2.08-2.57,3.64-4.76.53-.75,1.57-2,2.88-3.41a29.54,29.54,0,0,0,6-5c1.77-2.22,7.76-8,8-9.76.1-.79.07-2.17.18-3.61.79-1.78,1.6-3.77,2.34-5.67,1.39-1.8,2.38-4.28,2.12-5.66l.68-1.91a18,18,0,0,0-4.43-1.32,12.82,12.82,0,0,0-3.1,1.94c-.7-.34-1.38-.56-1.78,0-.83,1.24-5.74,5-7.27,6.58-4.22,3-8.31,5.61-10,5.61a6.55,6.55,0,0,0-4.74,1.8,3.68,3.68,0,0,0-.93-2.3,2.42,2.42,0,0,0-.54-.83l-1.28-1.28c-2.09-2.47-4.26-5.28-5.15-5.81a2.48,2.48,0,0,0-1.18-.27c-1.81-1.69-3.67-3.35-5.25-4.61a66.53,66.53,0,0,1-5.13-4.71c-.7-1.53-1.49-3.21-2.18-3.49a5.7,5.7,0,0,1-2.88-3.11c-.45-1.32-4.44-3.32-4.66-6.2a17.32,17.32,0,0,0-1.77-6.88c-.89-1.54.66-1.54-.45-4a66.19,66.19,0,0,1-2.43-6.21c-.45-1.33-2-7.09-3.77-7.76l-.15,0a5.66,5.66,0,0,0-.52-.61c-1-1-2.37-2.31-3.65-3.52a4.13,4.13,0,0,1,1,.19c2.22.67,2.44-.44,2.22-2.44a5.84,5.84,0,0,0-.37-1.32,30.31,30.31,0,0,1,3.4,3.09,18.19,18.19,0,0,1,.29,2c.22,2.66,1.56,4,3.55,5.32s3.77,4.43,4.66,6,1.77,2.21,2.44,5.32,1.77,7.32,3.32,8.2,5.32,4,6.65,7.09,4.21,6.21,5.54,6.65,4.44-1.1,5.54,2.22a54.11,54.11,0,0,0,2.89,7.09,3.66,3.66,0,0,0,.64,1c0,.92.57,3.43,8-.29,1.33-.67,2.64-1.36,3.92-2.07a39.77,39.77,0,0,0,7.39-4.14c3.32-2.66,8.42-6,10.86-11.31s5.76-15.73,8.2-17.95c1.5-1.36,4-8.07,5.71-13.93a43.13,43.13,0,0,0,2.64-13c.77-2.75,1.75-5.33,1.18-5.89-.71-.72-3.29-1.58-4.5-.39a7.9,7.9,0,0,1-1.26-1.39c-2.22-3.11-2.22-6.21-3.55-5.33a2.76,2.76,0,0,0-.59,1c-1-.31-2.45.44-2.29,2.36.09,1,.2,2.3.23,3.53-1.33,3.81-3,7.78-4.88,7.78-3.38,0-12.77-6.82-16.34-7.47a2.48,2.48,0,0,0-1.36-.11,9.74,9.74,0,0,1-4.26-1.39c-.16-1.54.89-3.46.89-4.11s-1.33-.88-2-1.56,0-2.43.89-4a1.2,1.2,0,0,0,.1-.92,13.71,13.71,0,0,0,1.26-4,1.15,1.15,0,0,1,.86.73c.32.65.76.35,1.41-.22a6.57,6.57,0,0,0,3-.45s1.77.44,2.22,3.1c.39,2.37,1.84,4.73,5.88,6.16.11.17.22.32.32.49,1.55,2.67,2.22,2.44,3.55,1.11s3.1-2,4.43-1.55,2.88-2.43,3.1-3.1,1.78-1.11,2.89-.89,1.55,1.77,3.55,1.77a3.73,3.73,0,0,0,1.52-.41c2.89.08,4.94-3.23,5.79-5.34.11-.28.27-.69.49-1.18a49.37,49.37,0,0,1,5.72-6.59c.78-.78.7-2.54,1.43-3.52a4.56,4.56,0,0,1,1.93-.67c2.28.13,4.57,1.11,7,1.31.16,0,.31.05.46.07a8.51,8.51,0,0,1,3.75,3.22,5.65,5.65,0,0,1,.23,1.59,4.29,4.29,0,0,0,1.45,3.05c0,.17.07.32.1.49,0,0,0,.6.78.14.81.46,1.6.55,1.88.08.67-1.1,2.66-4.21,4.43-4.21s2.66,4.21,5.32,5.77a3.05,3.05,0,0,1,1,1.14,24,24,0,0,1,.74,7.72c-.45,9.32-.45,21.29,2.22,27,0,0,.86-3,2-8.44a0,0,0,0,0,0,0C804.64,593.74,810.81,568.58,809,530.85Z"/><path class="a" d="M331.64,663.46c-2-2-9.31-4.66-10.64-7.32s-10-18.62-12.64-19.28-5.32-5.33-6.65-7.32-.66-2-4.65-2-3.33-5.32-1.33-10-1.33-8.65-1.33-8.65a37.32,37.32,0,0,1-1.33-8.65c0-4-2-6.64-4-10.63s-8.65-8-6-11.31,4.66-2.65,2.66-7.31-6-3.33-5.32-9.31-4-11.31-4.65-6-4,6.65-4.66,2,2.66,89.78,64.51,156.94c0,0,.66-10.64-2.66-14s-6.65-5.31-4-8,7.31,3.33,8.65-.66.66-14.62,0-18.62S333.63,665.45,331.64,663.46Z"/><path class="a" d="M279.1,529.78c9.31-6,4-13.3,6-17.29s-.67-6-2-9.31-.66-8,.67-11.3,1.33-4.66-2-2-2.66,6-2,10,2,8.65,2,12-3.32,4.65-.66,6.65S276.09,531.72,279.1,529.78Z"/><path class="a" d="M410.11,361.53c2.66-2.66,8.65-12,15.3-12s9.31-.66,9.31-4-4-6-6-4.65-4,3.32-4.66.66,3.32-8,5.32-10.64,4.65-6,2-6.65-6,2-8,3.33-12.63,4-14.63,8-2,2.66-6.65,4-6.65,4-11.3,5.32a40.52,40.52,0,0,1-6.8.92,10.82,10.82,0,0,0,3.47-4.25c1.33-4-2-10,2-10.64s.66,6.65,4.65,5.32,1.33-5.32,6-8.64,3.32-9.31,6-10-2.67,6,2,4,10-4,13.3-6.65,3.32-7.32,9.31-6,6,.66,8,6,2,9.31,4.65,6.65S452,317,454.67,315s-5.32-6.65-1.33-8.64,7.32-5.32,10.64-2,6.65-.66,6.65,4-.66,8,2,7.32.67-7.32,4-8,8-4,8.64-6-2-4.66-4.65-2.66a29.51,29.51,0,0,0-5.32,6s0-4-2-6.65,4.66-8,8.65-9.32,6.65-6.65,11.3-6.65,10.64,2.66,10.64.67,4.66-.67,12.64-4,5.32,1.33,12-.66,17.29-3.33,20-8c0,0-101.75-5.31-179.56,60.52s-87.12,133-87.12,133,11.31-10,11.31-15.3,3.32-14,7.31-16.62,2.66-7.32,8-5.32,10.64-.67,12-4.66,4-6,7.31-8,2.66-8.65,6-9.31,4.66,2,6,4.65,4.66,6,8.65,4,5.32-5.33,9.31-7.32,10.64,1.33,11.3,3.32-4,9.32,3.32,9.32,9.31-1.34,9.31-5.32-4.65-7.32-4.65-10,1.33-3.33,3.33-3.33,2.66,2,5.32.67a12.87,12.87,0,0,0,6-7.32c.67-2.65-1.33-4.65-3.32-3.32s-6,6-6.66,3.32,2-4.65,4-7.31,9.31-6.65,7.31-4-.66,4.65,2,4.65,4-4,5.32-8,8-9.31,8.64-11.3S407.45,364.19,410.11,361.53Z"/><path class="a" d="M538.46,314.32c0-2.67-2-6.66-3.32-4s-5.32,5.33-6,3.33-6-2.66-6.65-4.65l-.66-2s-1.33-2-6-2.66-6.65,0-12,1.33-10,0-8.64,6.65,6.65,6,6.65,6-3.33,4.65-6.65,5.32-8,5.32-12,7.31-6.65,2-12,4-18,14.63-20,16.63c-1.69,1.69-2,4.65-2,10s-4,11.31-4,15.3,2,3.32,5.32.67,3.32-5.33,6-5.33,3.33-4,6-5.32,2.66,4,5.32,1.33,0-4,2.66-4.65,4,0,6-.67,2.65-2,6.65-4.65,6-6.65,9.3-6.65,10.65.66,4.66,3.32-8,8-6,8,3.32-2,6.65-3.32,4,1.33,9.31-2,5.32,0,5.32,0,3.32,0,8-3.32,12.63-6.65,14.63-6.65,8-5.32,9.31-8.65,2-12.63,4.66-14,8-6,8-6-2-6-6-5.32S538.46,317,538.46,314.32Z"/><path class="a" d="M458.66,323.63c2-2,5.58-3.19,7.31-6.66,2.67-5.32,3.33-5.32,1.34-8s-5.32,2.65-7.32,6-8,3.33-12,6,1.33,6.65,4.65,6.65S456.66,325.62,458.66,323.63Z"/><path class="a" d="M509.2,294.36s-2-2.66-4-2.66c-4.65,0-10,2.66-10.64,6s0,4.66,3.33,4.66,11.3-4.66,15.29-2.66,9.31,6.65,10,4a33.63,33.63,0,0,0,1.33-8c0-2.66-1.33-4.66-5.32-2.66S509.2,294.36,509.2,294.36Z"/><path class="a" d="M720.68,727.3c-.66,2-5.32,7.31-10,7.31s-4.66,3.32-8.65,8.65,4,4,2,6-5.32,1.33-8.65,3.33a7.44,7.44,0,0,0-3.33,6l-2.65,2.66s-6,4.65-.67,2,29.93-21.27,31.26-23.27,3.32-5.32,6-10-2.66-11.32-2.66-11.32C720,720,721.35,725.3,720.68,727.3Z"/><path class="a" d="M540.48,231.77c170,0,307.75,137.79,307.75,307.75S710.45,847.26,540.48,847.26,232.74,709.48,232.74,539.52,370.52,231.77,540.48,231.77m0-11a317.83,317.83,0,1,0,124.08,25.06,316.65,316.65,0,0,0-124.08-25.06Z"/><ellipse class="a" cx="956.47" cy="924" rx="45.6" ry="36.85" transform="translate(-183.34 238.84) rotate(-13)"/><ellipse class="a" cx="812.83" cy="956.34" rx="45.6" ry="36.85" transform="translate(-194.3 207.36) rotate(-13)"/><rect class="a" x="846.9" y="807.33" width="11.14" height="145.97"/><rect class="a" x="990.53" y="775" width="11.14" height="145.97"/><path class="a" d="M996,802.89,855.42,832.27a7.07,7.07,0,0,1-8.52-6.92V773a7.08,7.08,0,0,1,5.63-6.93l140.61-29.38a7.09,7.09,0,0,1,8.53,6.93V796A7.07,7.07,0,0,1,996,802.89Z"/><path class="a" d="M697.32,961.92H129.62a11.54,11.54,0,0,1-11.54-11.54V129.62a11.54,11.54,0,0,1,11.54-11.54H950.38a11.54,11.54,0,0,1,11.54,11.54v534a5.67,5.67,0,0,1-5,5.72,5.5,5.5,0,0,1-6-5.48V133.47a4.38,4.38,0,0,0-4.39-4.39H133.47a4.4,4.4,0,0,0-4.39,4.39V946.53a4.4,4.4,0,0,0,4.39,4.39H697.08a5.65,5.65,0,0,1,5.71,5A5.49,5.49,0,0,1,697.32,961.92Z"/></svg>