<?xml version="1.0" encoding="UTF-8"?><svg id="Icon" xmlns="http://www.w3.org/2000/svg" viewBox="0 0 1080 1080"><defs><style>.cls-1{fill:#1973b7;}.cls-2{fill:#fff;}.cls-3{fill:#f9b718;}</style></defs><rect id="no_round_corners" class="cls-1" width="1080" height="1080"/><ellipse class="cls-2" cx="719.43" cy="632.87" rx="141.65" ry="114.46" transform="translate(-123.93 178.06) rotate(-13)"/><ellipse class="cls-2" cx="306.18" cy="719.77" rx="141.65" ry="114.46" transform="translate(-154.07 87.32) rotate(-13)"/><rect class="cls-2" x="788.91" y="170.27" width="70.91" height="453.43"/><rect class="cls-2" x="375.7" y="255.82" width="70.91" height="453.43"/><path class="cls-2" d="M842.21,316.75l-439.85,91.9c-13.75,2.87-26.66-7.62-26.66-21.67v-173.49c0-10.48,7.35-19.52,17.61-21.67l439.85-91.9c13.75-2.87,26.66,7.62,26.66,21.67v173.49c0,10.48-7.35,19.52-17.61,21.67Z"/><rect class="cls-3" x="95.09" y="908.01" width="889.83" height="76" rx="9.21" ry="9.21"/></svg>